<?xml version="1.0" encoding="UTF-8"?>
<svg version="1.1" xmlns="http://www.w3.org/2000/svg" width="400" height="400">
<path d="M0 0 C132 0 264 0 400 0 C400 132 400 264 400 400 C268 400 136 400 0 400 C0 268 0 136 0 0 Z " fill="#3448C4" transform="translate(0,0)"/>
<path d="M0 0 C1.42426942 0.52660931 2.84876228 1.05261455 4.2734375 1.578125 C29.94538915 11.34697376 50.7795568 30.31285782 63 55 C63.6772844 57.33027353 64.34404043 59.66363403 65 62 C66.05281906 65.31473037 66.05281906 65.31473037 68 68 C71.58072925 69.65947056 75.10567044 70.42014619 78.953125 71.14453125 C91.34299286 73.50239292 100.48260073 81.2735848 109 90 C109.59296875 90.57234375 110.1859375 91.1446875 110.796875 91.734375 C123.84496687 105.34367512 126.49289831 122.83476114 126.30078125 140.828125 C125.81341665 154.33455664 119.68140842 167.59627716 110.6875 177.5625 C109.800625 178.366875 108.91375 179.17125 108 180 C107.4225 180.59296875 106.845 181.1859375 106.25 181.796875 C98.98069555 188.90096798 88.23516092 195.59167359 78 197 C76.36254766 178.09120419 76.36254766 178.09120419 79.9453125 173.515625 C82.57365801 172.08490481 85.19899861 171.04586747 88 170 C96.253164 164.41482152 102.43818882 155.92550022 104.63818359 146.1706543 C106.38263653 135.70511375 106.25959886 124.3675862 101 115 C100.62617188 114.22527344 100.25234375 113.45054687 99.8671875 112.65234375 C97.08405937 107.13216577 93.65750724 103.03853569 89 99 C88.50113281 98.54882812 88.00226563 98.09765625 87.48828125 97.6328125 C77.31267881 89.37955309 64.54652644 88.17923609 52 88 C51.5978125 86.43765625 51.5978125 86.43765625 51.1875 84.84375 C45.07635883 62.09821101 33.37825828 41.06745364 12.67651367 28.59350586 C6.69339175 25.16936656 0.58495355 22.07787406 -6 20 C-6.928125 19.70222656 -7.85625 19.40445313 -8.8125 19.09765625 C-31.56329239 13.0475068 -54.96810357 16.46238915 -75.23730469 27.93994141 C-79.54655592 30.53146064 -83.31057067 33.60082297 -87 37 C-87.77859375 37.71027344 -88.5571875 38.42054688 -89.359375 39.15234375 C-95.40728528 44.92627152 -101.22079924 51.27472006 -104.203125 59.1953125 C-105.50994656 62.62778686 -106.62765574 65.18311627 -109 68 C-113.62584861 69.6465757 -118.13983113 70.12925403 -122.99316406 70.68847656 C-131.40689176 71.99454913 -138.60954735 76.63606803 -145 82 C-145.99 82.721875 -146.98 83.44375 -148 84.1875 C-158.08478041 92.90206568 -164.54023286 105.96819138 -165.5078125 119.203125 C-166.17193409 136.9451173 -161.87737746 152.68928701 -149.9453125 166.2265625 C-148.04955006 168.10692839 -148.04955006 168.10692839 -145.5546875 169.2734375 C-142.43766503 170.96386034 -140.93906992 171.97935997 -139 175 C-137.83400627 182.23923764 -138.45525436 189.7208946 -139 197 C-154.49609179 192.31039327 -167.83809847 179.57793096 -175.875 165.78125 C-177.73170706 162.22789684 -179.38347517 158.66856971 -181 155 C-181.51046875 153.92878906 -182.0209375 152.85757813 -182.546875 151.75390625 C-189.01322042 136.04213998 -188.5551349 115.21621883 -182.546875 99.40234375 C-178.09441685 89.60918453 -173.14507312 81.07766298 -166 73 C-165.48179687 72.38769531 -164.96359375 71.77539062 -164.4296875 71.14453125 C-158.96846774 65.14816683 -151.89490324 61.13533286 -145 57 C-144.27683594 56.56429687 -143.55367187 56.12859375 -142.80859375 55.6796875 C-139.76304769 54.00891277 -137.20710217 53.03792714 -133.7578125 52.40625 C-126.01097099 50.87393796 -126.01097099 50.87393796 -120.26171875 45.83203125 C-118.10949716 42.61656242 -116.18489508 39.26391707 -114.21972656 35.93212891 C-103.31183402 18.65329353 -82.96416909 6.05683815 -64 0 C-62.76765625 -0.39445312 -61.5353125 -0.78890625 -60.265625 -1.1953125 C-42.02105675 -6.38061084 -17.71292783 -7.05198532 0 0 Z " fill="#F9FBFB" transform="translate(230,102)"/>
<path d="M0 0 C3.4308649 1.36386645 5.75705394 4.14301234 8.30459595 6.73171997 C8.89822937 7.32485489 9.49186279 7.91798981 10.10348511 8.52909851 C11.35430597 9.78225692 12.60144206 11.03910257 13.84512329 12.29934692 C15.75580427 14.23368581 17.67952291 16.15429666 19.6053772 18.07351685 C20.8184123 19.29212652 22.03067898 20.51150169 23.24209595 21.73171997 C23.82013977 22.30885239 24.39818359 22.8859848 24.9937439 23.48060608 C29.00772095 27.56709581 29.00772095 27.56709581 29.00772095 29.79812622 C26.03772095 29.79812622 23.06772095 29.79812622 20.00772095 29.79812622 C20.04581124 38.82163353 20.10522093 47.84467823 20.19162369 56.86785316 C20.23108202 61.05800536 20.26327839 65.24794793 20.27871704 69.43826294 C20.29389473 73.48449382 20.32835923 77.53014834 20.37602997 81.57612228 C20.39083245 83.11737423 20.39876132 84.65870848 20.3996048 86.20003128 C20.4019798 88.36437197 20.42909787 90.52712664 20.46182251 92.69119263 C20.47070496 93.92141144 20.4795874 95.15163025 20.48873901 96.41912842 C21.26178562 101.45229547 23.71899395 104.50939923 27.25772095 108.04812622 C27.83522095 108.62562622 28.41272095 109.20312622 29.00772095 109.79812622 C29.00772095 110.45812622 29.00772095 111.11812622 29.00772095 111.79812622 C23.29697968 111.94699255 17.58737949 112.05558592 11.87515259 112.12771606 C9.93419712 112.15779837 7.99337659 112.19867585 6.05288696 112.25076294 C3.25494029 112.32395877 0.45879759 112.35766723 -2.3399353 112.38406372 C-3.63097923 112.43051529 -3.63097923 112.43051529 -4.94810486 112.47790527 C-10.55707305 112.48100394 -13.50116927 111.32428946 -17.60505676 107.48065186 C-21.03494642 103.3206284 -21.23810236 100.1035913 -21.21932983 94.73464966 C-21.21962189 94.03180847 -21.21991394 93.32896729 -21.22021484 92.60482788 C-21.21882497 90.28892538 -21.20328018 87.9733473 -21.18759155 85.65750122 C-21.1838602 84.04896216 -21.1810138 82.44042081 -21.17901611 80.83187866 C-21.17138929 76.60352271 -21.15174899 72.37530472 -21.12960815 68.14700317 C-21.10912923 63.83020901 -21.10001002 59.51339249 -21.0899353 55.19656372 C-21.06850217 46.73035466 -21.03437774 38.26425762 -20.99227905 29.79812622 C-23.96227905 29.79812622 -26.93227905 29.79812622 -29.99227905 29.79812622 C-27.9287996 25.67116731 -25.44450077 22.9106378 -22.25009155 19.68484497 C-21.68531097 19.11103592 -21.1205304 18.53722687 -20.53863525 17.94602966 C-19.34606882 16.73898999 -18.15070051 15.53471299 -16.95272827 14.33303833 C-15.11832657 12.48668056 -13.30340265 10.62248972 -11.4883728 8.7571106 C-10.32676461 7.58604468 -9.16404148 6.41608341 -8.00009155 5.24734497 C-7.45829254 4.68601364 -6.91649353 4.12468231 -6.35827637 3.54634094 C-2.51190842 -0.25452682 -2.51190842 -0.25452682 0 0 Z " fill="#FCFDFD" transform="translate(135.99227905273438,190.20187377929688)"/>
<path d="M0 0 C4.26705487 1.65494286 7.1371993 4.84913041 10.296875 8.03125 C10.89050842 8.62296997 11.48414185 9.21468994 12.09576416 9.82434082 C13.34543718 11.07265581 14.59259992 12.32348823 15.83740234 13.57666016 C17.75007952 15.50007997 19.67323119 17.41256099 21.59765625 19.32421875 C22.81053798 20.53842139 24.02279952 21.75324393 25.234375 22.96875 C25.81241882 23.54274536 26.39046265 24.11674072 26.98602295 24.70812988 C31 28.77006566 31 28.77006566 31 31 C28.03 31 25.06 31 22 31 C22.09235286 38.5990995 22.19966999 46.19788216 22.31738281 53.79663086 C22.35566099 56.38154305 22.39051586 58.96650829 22.421875 61.55151367 C22.46755006 65.26760823 22.5255417 68.98333789 22.5859375 72.69921875 C22.59748871 73.85459641 22.60903992 75.00997406 22.62094116 76.20036316 C22.64081085 77.28110611 22.66068054 78.36184906 22.68115234 79.4753418 C22.69447601 80.42354294 22.70779968 81.37174408 22.7215271 82.34867859 C23.02768573 85.26359396 23.63427222 87.40649512 25 90 C25.99 90.33 26.98 90.66 28 91 C29.6875 93.5625 29.6875 93.5625 31 96 C25.25255142 96.07426628 19.5053834 96.12865726 13.75756836 96.16479492 C11.80309177 96.17986301 9.84864888 96.20032124 7.89428711 96.22631836 C5.08178377 96.26278865 2.26972826 96.27974622 -0.54296875 96.29296875 C-1.84949654 96.31619453 -1.84949654 96.31619453 -3.18241882 96.33988953 C-7.95221127 96.34120682 -11.14934879 96.13602172 -15 93 C-18.60781479 88.18958028 -20.12770498 84.76379714 -20.11352539 78.79418945 C-20.11344986 77.73331619 -20.11337433 76.67244293 -20.11329651 75.579422 C-20.10813522 74.43559555 -20.10297394 73.2917691 -20.09765625 72.11328125 C-20.0962413 70.94113571 -20.09482635 69.76899017 -20.09336853 68.56132507 C-20.08776388 64.81169093 -20.07521056 61.06211615 -20.0625 57.3125 C-20.0574856 54.77278732 -20.05292259 52.2330737 -20.04882812 49.69335938 C-20.03779294 43.46221927 -20.02105025 37.23111388 -20 31 C-22.64 31 -25.28 31 -28 31 C-28 28 -28 28 -25.4296875 25.08911133 C-24.25246159 23.91236127 -23.06695862 22.74385576 -21.875 21.58203125 C-21.25351074 20.96478683 -20.63202148 20.34754242 -19.99169922 19.71159363 C-18.00138167 17.73809421 -16.00089605 15.77526775 -14 13.8125 C-12.65035991 12.47790263 -11.30139264 11.14262449 -9.953125 9.80664062 C-6.64317773 6.52980425 -3.32407262 3.26250403 0 0 Z " fill="#FCFCFC" transform="translate(198,206)"/>
<path d="M0 0 C3.4308649 1.36386645 5.75705394 4.14301234 8.30459595 6.73171997 C8.89822937 7.32485489 9.49186279 7.91798981 10.10348511 8.52909851 C11.35430597 9.78225692 12.60144206 11.03910257 13.84512329 12.29934692 C15.75580427 14.23368581 17.67952291 16.15429666 19.6053772 18.07351685 C20.8184123 19.29212652 22.03067898 20.51150169 23.24209595 21.73171997 C23.82013977 22.30885239 24.39818359 22.8859848 24.9937439 23.48060608 C29.00772095 27.56709581 29.00772095 27.56709581 29.00772095 29.79812622 C26.03772095 29.79812622 23.06772095 29.79812622 20.00772095 29.79812622 C20.05212681 34.63683415 20.12222011 39.47426837 20.21524048 44.31228638 C20.24331426 45.95508641 20.26459589 47.59801811 20.27871704 49.24099731 C20.30033716 51.61488595 20.34707855 53.98721414 20.39834595 56.36062622 C20.39957458 57.08491821 20.40080322 57.80921021 20.40206909 58.55545044 C20.63804987 66.93409367 24.53122942 72.71313564 30.00772095 78.79812622 C24.27860522 78.89725906 18.54999256 78.96971962 12.82022095 79.01785278 C10.87254129 79.03792528 8.92492158 79.06518954 6.97744751 79.09988403 C4.17228374 79.14859474 1.36791908 79.17113863 -1.43759155 79.18875122 C-2.30344879 79.20939636 -3.16930603 79.2300415 -4.06140137 79.25131226 C-9.54836509 79.25333291 -12.63169813 78.44534217 -16.99227905 74.79812622 C-21.24527662 69.9585083 -21.12907222 65.3780853 -21.0899353 59.19265747 C-21.08852036 58.35345261 -21.08710541 57.51424774 -21.08564758 56.64961243 C-21.08005121 53.96991406 -21.0674994 51.29029932 -21.05477905 48.61062622 C-21.04976358 46.79357014 -21.04520076 44.97651274 -21.04110718 43.15945435 C-21.03008296 38.70564609 -21.01282083 34.25190034 -20.99227905 29.79812622 C-23.96227905 29.79812622 -26.93227905 29.79812622 -29.99227905 29.79812622 C-27.9287996 25.67116731 -25.44450077 22.9106378 -22.25009155 19.68484497 C-21.68531097 19.11103592 -21.1205304 18.53722687 -20.53863525 17.94602966 C-19.34606882 16.73898999 -18.15070051 15.53471299 -16.95272827 14.33303833 C-15.11832657 12.48668056 -13.30340265 10.62248972 -11.4883728 8.7571106 C-10.32676461 7.58604468 -9.16404148 6.41608341 -8.00009155 5.24734497 C-7.45829254 4.68601364 -6.91649353 4.12468231 -6.35827637 3.54634094 C-2.51190842 -0.25452682 -2.51190842 -0.25452682 0 0 Z " fill="#FCFDFD" transform="translate(262.9922790527344,223.20187377929688)"/>
<path d="M0 0 C5.99500997 4.96194855 11.46427037 10.3476624 16.9375 15.875 C17.81212891 16.75414062 18.68675781 17.63328125 19.58789062 18.5390625 C21.72757048 20.6904346 23.86486597 22.84411792 26 25 C26.66 24.67 27.32 24.34 28 24 C28.66 26.31 29.32 28.62 30 31 C31.45922693 30.88590407 32.91740598 30.75834456 34.375 30.625 C35.59316406 30.52058594 35.59316406 30.52058594 36.8359375 30.4140625 C39.20334191 30.17107412 39.20334191 30.17107412 41 28 C41.66 28.99 42.32 29.98 43 31 C43.103125 30.236875 43.20625 29.47375 43.3125 28.6875 C44.05067115 25.80192188 44.62140803 24.73820183 47 23 C47.99 23 48.98 23 50 23 C54.10230188 20.02944028 54.10230188 20.02944028 57 16 C60.00072385 15.63784367 62.08897282 15.39989675 65 16 C67.45095849 18.00378592 69.14287083 20.45445226 71 23 C72.6454378 24.68762851 74.31288577 26.3540349 76 28 C76.53496094 28.54527344 77.06992188 29.09054688 77.62109375 29.65234375 C84.18663635 36.63053331 84.18663635 36.63053331 92 42 C92.73075648 44.3140622 93.40138258 46.64828869 94 49 C91.11604263 50.44197868 88.17569521 50.58833581 85 51 C84.94925295 57.74435205 84.9142466 64.48865477 84.89013672 71.2331543 C84.88008472 73.52711833 84.8664411 75.82106957 84.84912109 78.11499023 C84.82483791 81.41393188 84.81350877 84.71270397 84.8046875 88.01171875 C84.79436493 89.03585373 84.78404236 90.05998871 84.77340698 91.11515808 C84.77325592 92.07577652 84.77310486 93.03639496 84.77294922 94.02612305 C84.768508 94.86773483 84.76406677 95.70934662 84.75949097 96.57646179 C84.89255478 99.09479954 84.89255478 99.09479954 86.07669067 101.62336731 C87 104 87 104 86 107 C83.48147195 103.33012553 82.62822947 100.91533808 82.65942383 96.4753418 C82.65965042 95.39459885 82.65987701 94.3138559 82.66011047 93.20036316 C82.67559433 92.0449855 82.69107819 90.88960785 82.70703125 89.69921875 C82.71127609 88.50770706 82.71552094 87.31619537 82.71989441 86.08857727 C82.73666907 82.28798704 82.77432041 78.48792962 82.8125 74.6875 C82.82754834 72.10873162 82.84123649 69.52995492 82.85351562 66.95117188 C82.88656873 60.6339332 82.93675681 54.31700467 83 48 C85.97 48 88.94 48 92 48 C86.18710312 41.15170635 79.93512431 34.81801654 73.5625 28.5 C72.5342702 27.47679861 71.50627374 26.45336267 70.47851562 25.4296875 C67.98835662 22.95042001 65.49507167 20.47432462 63 18 C58.83415904 19.63277926 56.06333805 22.68283667 52.9921875 25.8125 C52.42549347 26.38202393 51.85879944 26.95154785 51.27493286 27.53833008 C49.47019363 29.35423367 47.67253696 31.17696947 45.875 33 C44.65801476 34.22702156 43.44057175 35.45358928 42.22265625 36.6796875 C39.99568724 38.92298411 37.77127005 41.16873967 35.55029297 43.41796875 C34.0376711 44.94941513 32.52206323 46.47793677 31 48 C30.67 47.01 30.34 46.02 30 45 C29.67 45.66 29.34 46.32 29 47 C28.01 47 27.02 47 26 47 C26 45.35 26 43.7 26 42 C28.31 41.34 30.62 40.68 33 40 C32.505 38.02 32.505 38.02 32 36 C29.03 36.495 29.03 36.495 26 37 C26.33 36.01 26.66 35.02 27 34 C25.02 33.67 23.04 33.34 21 33 C21 55.11 21 77.22 21 100 C20.67 100 20.34 100 20 100 C20 77.56 20 55.12 20 32 C22.64 32 25.28 32 28 32 C25.69829098 27.69483298 22.71296262 24.47943337 19.23828125 21.11328125 C18.68762497 20.57019821 18.13696869 20.02711517 17.56962585 19.46757507 C15.82202173 17.74428048 14.06809925 16.02764654 12.3125 14.3125 C9.99041919 12.04344482 7.67492334 9.76796447 5.36328125 7.48828125 C4.55713127 6.70702629 4.55713127 6.70702629 3.73469543 5.9099884 C2.45164111 4.64420346 1.22031675 3.32637361 0 2 C0 1.34 0 0.68 0 0 Z " fill="#3343AF" transform="translate(137,189)"/>
<path d="M0 0 C2.125 -0.4375 2.125 -0.4375 5 0 C7.2760575 2.10922606 9.08586801 4.56522411 11 7 C12.6454378 8.68762851 14.31288577 10.3540349 16 12 C16.53496094 12.54527344 17.06992188 13.09054688 17.62109375 13.65234375 C24.18663635 20.63053331 24.18663635 20.63053331 32 26 C32.73075648 28.3140622 33.40138258 30.64828869 34 33 C31.11604263 34.44197868 28.17569521 34.58833581 25 35 C24.94925295 41.74435205 24.9142466 48.48865477 24.89013672 55.2331543 C24.88008472 57.52711833 24.8664411 59.82106957 24.84912109 62.11499023 C24.82483791 65.41393188 24.81350877 68.71270397 24.8046875 72.01171875 C24.79436493 73.03585373 24.78404236 74.05998871 24.77340698 75.11515808 C24.77325592 76.07577652 24.77310486 77.03639496 24.77294922 78.02612305 C24.76628738 79.28854073 24.76628738 79.28854073 24.75949097 80.57646179 C24.89255478 83.09479954 24.89255478 83.09479954 26.07669067 85.62336731 C27 88 27 88 26 91 C23.48147195 87.33012553 22.62822947 84.91533808 22.65942383 80.4753418 C22.65965042 79.39459885 22.65987701 78.3138559 22.66011047 77.20036316 C22.67559433 76.0449855 22.69107819 74.88960785 22.70703125 73.69921875 C22.71127609 72.50770706 22.71552094 71.31619537 22.71989441 70.08857727 C22.73666907 66.28798704 22.77432041 62.48792962 22.8125 58.6875 C22.82754834 56.10873162 22.84123649 53.52995492 22.85351562 50.95117188 C22.88656873 44.6339332 22.93675681 38.31700467 23 32 C25.97 32 28.94 32 32 32 C26.68676476 25.75175409 21.04672813 19.89133302 15.23730469 14.10693359 C13.735137 12.61019068 12.2384727 11.10809001 10.7421875 9.60546875 C9.78157098 8.64551202 8.82064485 7.685865 7.859375 6.7265625 C6.99795898 5.86627441 6.13654297 5.00598633 5.24902344 4.11962891 C2.99125736 1.87356103 2.99125736 1.87356103 0 0 Z " fill="#3C48A0" transform="translate(197,205)"/>
<path d="M0 0 C8.3375955 2.84269513 13.54382453 9.52421225 17.4375 17.1875 C18.33798303 19.1039126 19.19405501 21.04195005 20 23 C20.37769531 23.91394531 20.75539063 24.82789063 21.14453125 25.76953125 C22.28160744 30.06342171 22.29125683 34.07864289 22.25 38.5 C22.25773437 39.32886719 22.26546875 40.15773437 22.2734375 41.01171875 C22.25841117 45.73750075 21.8165653 49.55950704 20 54 C19.67 54 19.34 54 19 54 C19.0407666 53.40461426 19.0815332 52.80922852 19.12353516 52.19580078 C19.3015863 49.50612557 19.46348359 46.81571656 19.625 44.125 C19.68945312 43.18785156 19.75390625 42.25070313 19.8203125 41.28515625 C19.871875 40.38925781 19.9234375 39.49335938 19.9765625 38.5703125 C20.02893066 37.74289551 20.08129883 36.91547852 20.13525391 36.06298828 C20.21280739 33.77325283 20.21280739 33.77325283 18 32 C17.8046875 29.6171875 17.8046875 29.6171875 17.875 26.875 C17.89304687 25.96492188 17.91109375 25.05484375 17.9296875 24.1171875 C17.95289063 23.41851562 17.97609375 22.71984375 18 22 C16.02 22.99 16.02 22.99 14 24 C14.0928125 22.1128125 14.0928125 22.1128125 14.1875 20.1875 C14.26238023 16.9444785 14.26238023 16.9444785 12.625 14.25 C12.08875 13.8375 11.5525 13.425 11 13 C10.7421875 12.34 10.484375 11.68 10.21875 11 C9.14993195 8.76911599 9.14993195 8.76911599 6.6171875 8.171875 C5.71226562 8.03265625 4.80734375 7.8934375 3.875 7.75 C2.96492188 7.60046875 2.05484375 7.4509375 1.1171875 7.296875 C0.41851562 7.19890625 -0.28015625 7.1009375 -1 7 C-1 6.01 -1 5.02 -1 4 C-0.34 4.33 0.32 4.66 1 5 C0.67 3.35 0.34 1.7 0 0 Z " fill="#3A4AAA" transform="translate(314,198)"/>
<path d="M0 0 C2.97 0.495 2.97 0.495 6 1 C6.33 2.65 6.66 4.3 7 6 C7.66 6 8.32 6 9 6 C9.33 6.66 9.66 7.32 10 8 C10.99 8.33 11.98 8.66 13 9 C14.01866229 10.65532623 15.01810813 12.32260138 16 14 C16.99 14.66 17.98 15.32 19 16 C19 16.66 19 17.32 19 18 C21.31 18.33 23.62 18.66 26 19 C26 19.66 26 20.32 26 21 C28.31 21 30.62 21 33 21 C33.495 23.475 33.495 23.475 34 26 C32.68 26 31.36 26 30 26 C30.66 27.65 31.32 29.3 32 31 C27.82791008 29.36033597 25.01878371 26.30728471 21.921875 23.1875 C21.35043762 22.61797607 20.77900024 22.04845215 20.19024658 21.46166992 C18.98765211 20.2604332 17.78756666 19.05668003 16.58984375 17.85058594 C14.74959283 15.99959045 12.89887367 14.15954554 11.046875 12.3203125 C9.87956616 11.15168276 8.71287749 9.98243316 7.546875 8.8125 C6.99070496 8.26037842 6.43453491 7.70825684 5.86151123 7.1394043 C2 3.22993635 2 3.22993635 2 1 C1.34 0.67 0.68 0.34 0 0 Z " fill="#3848B8" transform="translate(262,221)"/>
<path d="M0 0 C0.33 0 0.66 0 1 0 C1.02505615 0.93569824 1.0501123 1.87139648 1.07592773 2.83544922 C1.19382956 7.18204296 1.31483569 11.52853848 1.4375 15.875 C1.45923279 16.65166016 1.48096558 17.42832031 1.50335693 18.22851562 C1.77633803 27.87835986 2.07477787 37.51799958 2.78295898 47.14794922 C3.10133643 51.79732714 3.10133643 51.79732714 2 54 C2.66 54 3.32 54 4 54 C4.33 54.66 4.66 55.32 5 56 C5.99 56.33 6.98 56.66 8 57 C8 57.66 8 58.32 8 59 C8.66 59 9.32 59 10 59 C10 59.66 10 60.32 10 61 C11.32 61 12.64 61 14 61 C14 61.99 14 62.98 14 64 C12.3125 64.6875 12.3125 64.6875 10 65 C5.45798509 63.06964366 3.44684651 60.19459402 1 56 C-0.00951397 52.9714581 -0.121045 50.95994658 -0.11352539 47.79418945 C-0.11344986 46.73331619 -0.11337433 45.67244293 -0.11329651 44.579422 C-0.10813522 43.43559555 -0.10297394 42.2917691 -0.09765625 41.11328125 C-0.0962413 39.94113571 -0.09482635 38.76899017 -0.09336853 37.56132507 C-0.08776388 33.81169093 -0.07521056 30.06211615 -0.0625 26.3125 C-0.0574856 23.77278732 -0.05292259 21.2330737 -0.04882812 18.69335938 C-0.03779294 12.46221927 -0.02105025 6.23111388 0 0 Z " fill="#CBD5F1" transform="translate(178,237)"/>
<path d="M0 0 C0.33 0.66 0.66 1.32 1 2 C0.67 2.66 0.34 3.32 0 4 C-0.99 4 -1.98 4 -3 4 C-3 4.66 -3 5.32 -3 6 C-3.78375 6.45375 -4.5675 6.9075 -5.375 7.375 C-8.24381098 9.15093061 -8.75393244 9.97383593 -10 13 C-11.4375 15.75 -11.4375 15.75 -13 18 C-13.99 18 -14.98 18 -16 18 C-16 18.66 -16 19.32 -16 20 C-16.66 20 -17.32 20 -18 20 C-18.3403125 21.36125 -18.3403125 21.36125 -18.6875 22.75 C-20.2088441 26.51713776 -21.88729011 27.50983209 -25 30 C-26.34772903 33.12133744 -26.34772903 33.12133744 -27 36 C-27.66 36 -28.32 36 -29 36 C-29.33 36.99 -29.66 37.98 -30 39 C-30.33 38.34 -30.66 37.68 -31 37 C-24.87381046 21.96652535 -13.48263916 8.98842611 0 0 Z " fill="#3B4AB3" transform="translate(152,131)"/>
<path d="M0 0 C0.99 0 1.98 0 3 0 C3.33 0.99 3.66 1.98 4 3 C4.66 2.67 5.32 2.34 6 2 C5.98428955 2.9065332 5.9685791 3.81306641 5.95239258 4.74707031 C5.90071028 8.16900561 5.86338508 11.59051541 5.83520508 15.01269531 C5.82028571 16.48281473 5.79994273 17.952891 5.77368164 19.42285156 C5.6127581 28.67437719 6.15804451 37.09285653 9 46 C8.34 46 7.68 46 7 46 C2.43211068 38.25324869 2.34562774 30.75698565 2.25 21.9375 C2.22178389 20.58134307 2.19184876 19.22522077 2.16015625 17.86914062 C2.089912 14.57936826 2.03698742 11.29028612 2 8 C1.34 8 0.68 8 0 8 C0 5.36 0 2.72 0 0 Z " fill="#3042B0" transform="translate(39,208)"/>
<path d="M0 0 C2.9460614 2.59469628 4.61437193 5.61619509 6.5625 9 C10.59144493 15.81042199 15.47510912 21.35057264 21 27 C19.33333333 27 17.66666667 27 16 27 C16 26.01 16 25.02 16 24 C15.01 24 14.02 24 13 24 C12.67 24.99 12.34 25.98 12 27 C11.01 26.67 10.02 26.34 9 26 C9.66666667 23.33333333 10.33333333 20.66666667 11 18 C10.566875 18.495 10.13375 18.99 9.6875 19.5 C8 21 8 21 5 21 C5.52268466 18.23723823 6.10869587 15.6739124 7 13 C6.4225 12.7525 5.845 12.505 5.25 12.25 C2.5235979 10.73533217 0.85055992 9.53595248 -1 7 C-0.75 3.25 -0.75 3.25 0 0 Z " fill="#3649B1" transform="translate(49,259)"/>
<path d="M0 0 C0.99 0.33 1.98 0.66 3 1 C2.01 2.485 2.01 2.485 1 4 C3.97 4 6.94 4 10 4 C10 16.87 10 29.74 10 43 C8 41 8 41 7.77294922 37.56005859 C7.77326631 36.08948021 7.78459013 34.61887858 7.8046875 33.1484375 C7.8075174 32.37440582 7.81034729 31.60037415 7.81326294 30.80288696 C7.82447246 28.32676843 7.84957797 25.8510095 7.875 23.375 C7.88502882 21.69792188 7.89415484 20.02083811 7.90234375 18.34375 C7.92441426 14.22902777 7.95894898 10.11457489 8 6 C7.071875 6.20625 6.14375 6.4125 5.1875 6.625 C2 7 2 7 -1 5 C-0.67 3.35 -0.34 1.7 0 0 Z " fill="#4250AC" transform="translate(232,249)"/>
<path d="M0 0 C2.2109885 0.42793326 3.98119242 0.99059621 6 2 C6 2.66 6 3.32 6 4 C6.928125 4.28875 7.85625 4.5775 8.8125 4.875 C12 6 12 6 15 8 C15 8.66 15 9.32 15 10 C15.66 10 16.32 10 17 10 C17.12375 10.804375 17.2475 11.60875 17.375 12.4375 C17.58125 13.283125 17.7875 14.12875 18 15 C18.66 15.33 19.32 15.66 20 16 C20 15.34 20 14.68 20 14 C22 14 22 14 23.75 15.625 C25 18 25 18 24.1875 21.25 C23.795625 22.1575 23.40375 23.065 23 24 C20.08975649 21.17794568 17.40630151 18.30374969 14.8125 15.1875 C11.31819743 11.13133821 7.37219411 7.92012472 3.13671875 4.6640625 C1 3 1 3 -1 1 C-0.67 0.67 -0.34 0.34 0 0 Z " fill="#ECF3F9" transform="translate(245,130)"/>
<path d="M0 0 C0.66 0 1.32 0 2 0 C2.2475 0.763125 2.495 1.52625 2.75 2.3125 C4.12786359 5.27490672 5.4282841 6.11407501 8 8 C8 8.99 8 9.98 8 11 C8.99 11.33 9.98 11.66 11 12 C11 13.32 11 14.64 11 16 C11.53625 16.268125 12.0725 16.53625 12.625 16.8125 C13.40875 17.204375 14.1925 17.59625 15 18 C16.03125 18.45375 17.0625 18.9075 18.125 19.375 C21.27096812 21.15315589 21.78863002 21.72468292 23 25 C23.22705078 27.65722656 23.22705078 27.65722656 23.1953125 30.640625 C23.18886719 31.71054687 23.18242188 32.78046875 23.17578125 33.8828125 C23.15902344 34.99398437 23.14226562 36.10515625 23.125 37.25 C23.11597656 38.37664062 23.10695313 39.50328125 23.09765625 40.6640625 C23.07410658 43.44292365 23.0412168 46.2213539 23 49 C22.34 48.67 21.68 48.34 21 48 C21.08640747 47.07102905 21.08640747 47.07102905 21.17456055 46.12329102 C22.60815984 33.96442731 22.60815984 33.96442731 18.83203125 22.921875 C16.02437665 20.76787606 16.02437665 20.76787606 12.97265625 18.9375 C6.31453662 14.59791086 2.20741556 7.50082004 0 0 Z " fill="#4A57A6" transform="translate(69,251)"/>
<path d="M0 0 C2.64 0 5.28 0 8 0 C5.23638104 3.32046756 1.52602885 4.95596672 -2.25 6.875 C-7.47596066 9.58776972 -12.34399539 12.36604518 -17 16 C-17.33 14.68 -17.66 13.36 -18 12 C-14.04 10.02 -10.08 8.04 -6 6 C-6.66 5.67 -7.32 5.34 -8 5 C-7.67 3.68 -7.34 2.36 -7 1 C-6.01 1 -5.02 1 -4 1 C-4 1.66 -4 2.32 -4 3 C-2.35 3 -0.7 3 1 3 C0.67 2.01 0.34 1.02 0 0 Z " fill="#394DB6" transform="translate(88,153)"/>
<path d="M0 0 C0 0.99 0 1.98 0 3 C1.32 3.66 2.64 4.32 4 5 C4 5.66 4 6.32 4 7 C3.34 7 2.68 7 2 7 C2 7.66 2 8.32 2 9 C-0.38380715 12.22993664 -2.83361109 12.5980817 -6.6875 13.1875 C-7.68136719 13.34605469 -8.67523438 13.50460937 -9.69921875 13.66796875 C-10.45847656 13.77753906 -11.21773438 13.88710938 -12 14 C-10.43622501 10.67697814 -8.78646849 8.43815993 -6 6 C-5.34 6 -4.68 6 -4 6 C-3.566875 5.071875 -3.566875 5.071875 -3.125 4.125 C-2 2 -2 2 0 0 Z " fill="#3948B8" transform="translate(344,275)"/>
<path d="M0 0 C0.99 0.33 1.98 0.66 3 1 C2.34 1 1.68 1 1 1 C0.773125 1.763125 0.54625 2.52625 0.3125 3.3125 C-1 6 -1 6 -3.5 7.4375 C-6.7856534 9.49103338 -6.8519288 11.40271023 -8 15 C-9.9375 16.1875 -9.9375 16.1875 -12 17 C-12.495 17.495 -12.99 17.99 -13.5 18.5 C-15.19438978 20.19438978 -16.86793589 20.93396795 -19 22 C-20.70921589 23.5412312 -20.70921589 23.5412312 -22 25 C-22.66 24.67 -23.32 24.34 -24 24 C-16.08 16.08 -8.16 8.16 0 0 Z " fill="#DDE5F4" transform="translate(261,223)"/>
<path d="M0 0 C0.66 0 1.32 0 2 0 C2.67595315 1.41225926 3.34040059 2.83002905 4 4.25 C4.37125 5.03890625 4.7425 5.8278125 5.125 6.640625 C6 9 6 9 6 13 C7.051875 12.79375 8.10375 12.5875 9.1875 12.375 C12.99624887 12.00036896 14.66835752 12.28369933 18 14 C18 14.66 18 15.32 18 16 C19.423125 15.938125 19.423125 15.938125 20.875 15.875 C24 16 24 16 26 18 C25.34 18.66 24.68 19.32 24 20 C21.95805665 19.37590455 19.91645785 18.75068171 17.875 18.125 C16.73804688 17.77695313 15.60109375 17.42890625 14.4296875 17.0703125 C12.73199219 16.54050781 12.73199219 16.54050781 11 16 C9.39125 15.6596875 9.39125 15.6596875 7.75 15.3125 C5 14 5 14 3.3203125 10.7421875 C2.89761185 9.46087617 2.49972937 8.17115295 2.125 6.875 C1.80789063 5.88693359 1.80789063 5.88693359 1.484375 4.87890625 C0.96798883 3.25933144 0.48103863 1.63042298 0 0 Z M26 16 C28 17 28 17 28 17 Z " fill="#4050A2" transform="translate(292,156)"/>
<path d="M0 0 C1.16959987 0.97566112 2.33561177 1.955625 3.5 2.9375 C4.47453125 3.75541016 4.47453125 3.75541016 5.46875 4.58984375 C5.9740625 5.05519531 6.479375 5.52054687 7 6 C7 6.33 7 6.66 7 7 C1.19760386 7.04934656 -4.60467081 7.08569402 -10.40722656 7.10986328 C-12.38218309 7.11993627 -14.35712466 7.13359521 -16.33203125 7.15087891 C-19.16670418 7.17507039 -22.00118038 7.18646991 -24.8359375 7.1953125 C-25.72243988 7.20563507 -26.60894226 7.21595764 -27.52230835 7.22659302 C-29.68285952 7.2269907 -31.84293718 7.12272534 -34 7 C-34.66 6.34 -35.32 5.68 -36 5 C-35.01 4.67 -34.02 4.34 -33 4 C-32.34 4.33 -31.68 4.66 -31 5 C-28.74879258 5.08573394 -26.49500697 5.10712188 -24.2421875 5.09765625 C-23.57913605 5.0962413 -22.91608459 5.09482635 -22.23294067 5.09336853 C-20.11358137 5.08776754 -17.99432741 5.075215 -15.875 5.0625 C-14.43880361 5.05748512 -13.00260556 5.05292219 -11.56640625 5.04882812 C-8.04423655 5.03779782 -4.52212855 5.02053259 -1 5 C-0.67 3.35 -0.34 1.7 0 0 Z " fill="#E9F6FC" transform="translate(286,295)"/>
<path d="M0 0 C0.33 0 0.66 0 1 0 C1.0825 1.216875 1.165 2.43375 1.25 3.6875 C1.75412881 7.82281751 3.11385317 9.93893518 6 13 C8 16 8 16 7.625 18.1875 C7.41875 18.785625 7.2125 19.38375 7 20 C6.01 20 5.02 20 4 20 C4.33 21.98 4.66 23.96 5 26 C0.817047 21.817047 0.11079836 15.09386292 -0.19140625 9.3828125 C-0.18797816 6.24953839 -0.13436496 3.13020587 0 0 Z " fill="#3446AE" transform="translate(64,224)"/>
<path d="M0 0 C2.97 0.495 2.97 0.495 6 1 C6.33 2.65 6.66 4.3 7 6 C7.66 6 8.32 6 9 6 C9.33 6.66 9.66 7.32 10 8 C10.99 8.33 11.98 8.66 13 9 C14.01866229 10.65532623 15.01810813 12.32260138 16 14 C16.99 14.66 17.98 15.32 19 16 C19 16.66 19 17.32 19 18 C19.66 18 20.32 18 21 18 C21 18.66 21 19.32 21 20 C21.66 20 22.32 20 23 20 C24.625 22 24.625 22 26 24 C25.67 24.66 25.34 25.32 25 26 C21.71809541 22.76743024 18.44273543 19.52842394 15.17333984 16.28320312 C14.05956877 15.17950702 12.94401168 14.07761027 11.82666016 12.97753906 C10.22348763 11.39854926 8.62679089 9.81325886 7.03125 8.2265625 C6.52815308 7.73378815 6.02505615 7.24101379 5.50671387 6.73330688 C4.29925487 5.526244 3.14417071 4.26721404 2 3 C2 2.34 2 1.68 2 1 C1.34 0.67 0.68 0.34 0 0 Z " fill="#3F4BA9" transform="translate(262,221)"/>
<path d="M0 0 C0.33 0.66 0.66 1.32 1 2 C0.67 2.66 0.34 3.32 0 4 C-0.99 4 -1.98 4 -3 4 C-3 4.66 -3 5.32 -3 6 C-3.78375 6.45375 -4.5675 6.9075 -5.375 7.375 C-8.24381098 9.15093061 -8.75393244 9.97383593 -10 13 C-10.98879205 14.67334039 -11.98648336 16.34151823 -13 18 C-13.33 17.34 -13.66 16.68 -14 16 C-15.65 16.99 -17.3 17.98 -19 19 C-17.40927252 15.07867179 -14.71490199 12.4172092 -11.75 9.5 C-11.28464844 9.02691406 -10.81929687 8.55382812 -10.33984375 8.06640625 C-7.11681551 4.86113574 -3.82668953 2.40017213 0 0 Z " fill="#3643A4" transform="translate(152,131)"/>
<path d="M0 0 C1.765625 0.90234375 1.765625 0.90234375 2.765625 2.90234375 C0.785625 3.89234375 0.785625 3.89234375 -1.234375 4.90234375 C-0.904375 5.89234375 -0.574375 6.88234375 -0.234375 7.90234375 C-1.224375 8.56234375 -2.214375 9.22234375 -3.234375 9.90234375 C-3.894375 9.24234375 -4.554375 8.58234375 -5.234375 7.90234375 C-6.884375 9.22234375 -8.534375 10.54234375 -10.234375 11.90234375 C-10.564375 10.91234375 -10.894375 9.92234375 -11.234375 8.90234375 C-9.83359102 7.366869 -8.41316597 5.84929227 -6.984375 4.33984375 C-5.80101562 3.06947266 -5.80101562 3.06947266 -4.59375 1.7734375 C-2.234375 -0.09765625 -2.234375 -0.09765625 0 0 Z " fill="#F1F5FA" transform="translate(136.234375,190.09765625)"/>
<path d="M0 0 C0.99 0.33 1.98 0.66 3 1 C3 1.99 3 2.98 3 4 C3.99 3.34 4.98 2.68 6 2 C9.1875 2.375 9.1875 2.375 12 3 C12.33 3.99 12.66 4.98 13 6 C9.98968256 6.93423645 9.13349732 7.04449911 6 6 C6.99 7.32 7.98 8.64 9 10 C8.67 10.66 8.34 11.32 8 12 C1.29540481 5.92560175 1.29540481 5.92560175 0.0625 2.0625 C0.041875 1.381875 0.02125 0.70125 0 0 Z " fill="#3849AD" transform="translate(285,290)"/>
<path d="M0 0 C0.33 0 0.66 0 1 0 C1.01458252 0.63389648 1.02916504 1.26779297 1.04418945 1.92089844 C1.32325198 18.7103892 1.32325198 18.7103892 5 35 C4.34 35 3.68 35 3 35 C-1.45372452 27.48157167 -1.34572595 20.98096656 -0.75 12.4375 C-0.68425781 11.23802734 -0.61851563 10.03855469 -0.55078125 8.80273438 C-0.3870199 5.8667273 -0.20299349 2.93351128 0 0 Z " fill="#4754B4" transform="translate(43,219)"/>
<path d="M0 0 C0.99 0.33 1.98 0.66 3 1 C0.67633675 7.60409556 0.67633675 7.60409556 -2.5625 9.5 C-5 10 -5 10 -7 9 C-6.67 9.99 -6.34 10.98 -6 12 C-7.65 12 -9.3 12 -11 12 C-7.49102731 7.81576108 -3.91939465 3.80411834 0 0 Z " fill="#EEEFFB" transform="translate(198,206)"/>
<path d="M0 0 C1.68762851 1.6454378 3.3540349 3.31288577 5 5 C5 5.33 5 5.66 5 6 C-7.87 6 -20.74 6 -34 6 C-34 5.67 -34 5.34 -34 5 C-23.44 4.67 -12.88 4.34 -2 4 C-1.34 2.68 -0.68 1.36 0 0 Z " fill="#EEFCFF" transform="translate(224,296)"/>
<path d="M0 0 C1.75098126 2.62647188 3.38731308 5.28775382 5 8 C4.01 8 3.02 8 2 8 C2.66 8.61875 3.32 9.2375 4 9.875 C6 12 6 12 6 14 C3.25913944 14.22223194 1.56036279 14.34781139 -0.8125 12.875 C-2.54865893 10.13369643 -2.31916776 8.19167759 -2 5 C-1 2.125 -1 2.125 0 0 Z " fill="#3A4CB6" transform="translate(178,290)"/>
<path d="M0 0 C2.10074479 2.77373788 4.14926926 5.57318684 6.125 8.4375 C6.64320312 9.17871094 7.16140625 9.91992188 7.6953125 10.68359375 C9.08358545 13.14840171 9.59726972 15.21526746 10 18 C7.5 16.75 7.5 16.75 5 15 C5 13.68 5 12.36 5 11 C3.35 11.33 1.7 11.66 0 12 C0.185625 11.13375 0.37125 10.2675 0.5625 9.375 C1.00667933 5.94847372 0.71954492 3.35787629 0 0 Z " fill="#E6F0FA" transform="translate(68,251)"/>
<path d="M0 0 C0 0.66 0 1.32 0 2 C-0.59167969 2.12117187 -1.18335937 2.24234375 -1.79296875 2.3671875 C-9.55730676 3.79981628 -9.55730676 3.79981628 -16 8 C-18.65537372 8.56520003 -21.29144713 8.73788198 -24 9 C-20.47501264 5.94978031 -17.20095334 4.03095515 -12.875 2.3125 C-11.84117188 1.89613281 -10.80734375 1.47976562 -9.7421875 1.05078125 C-3.86762519 -1.20029747 -3.86762519 -1.20029747 0 0 Z " fill="#4E5AB1" transform="translate(112,172)"/>
<path d="M0 0 C0.33 0 0.66 0 1 0 C1 1.65 1 3.3 1 5 C1.66 5.33 2.32 5.66 3 6 C2.01 6.495 2.01 6.495 1 7 C1 16.57 1 26.14 1 36 C-1.06587751 31.86824498 -1.2468594 30.11925295 -1.23046875 25.625 C-1.22853516 24.39265625 -1.22660156 23.1603125 -1.22460938 21.890625 C-1.21236328 20.60671875 -1.20011719 19.3228125 -1.1875 18 C-1.18685547 16.71609375 -1.18621094 15.4321875 -1.18554688 14.109375 C-1.13663761 3.71887419 -1.13663761 3.71887419 0 0 Z " fill="#DAE5F4" transform="translate(45,210)"/>
<path d="M0 0 C3.14737182 0.69941596 6.02588876 1.76078698 9 3 C8.67 3.99 8.34 4.98 8 6 C7.401875 5.835 6.80375 5.67 6.1875 5.5 C3.88655664 4.8885876 3.88655664 4.8885876 1 5 C0.505 5.66 0.01 6.32 -0.5 7 C-0.995 7.66 -1.49 8.32 -2 9 C-2.99 9 -3.98 9 -5 9 C-5 8.34 -5 7.68 -5 7 C-4.34 7 -3.68 7 -3 7 C-2.87625 6.401875 -2.7525 5.80375 -2.625 5.1875 C-2 3 -2 3 0 0 Z " fill="#FBFDF1" transform="translate(101,153)"/>
<path d="M0 0 C3.11309166 1.63990088 5.65705264 3.3559965 8 6 C8.98969736 9.83434525 8.76356452 13.44687494 8.5 17.375 C8.46390625 18.39722656 8.4278125 19.41945313 8.390625 20.47265625 C8.29668081 22.98566323 8.16553566 25.49086139 8 28 C7.34 27.67 6.68 27.34 6 27 C6 20.4 6 13.8 6 7 C5.34 7 4.68 7 4 7 C3.67 6.34 3.34 5.68 3 5 C0.47266765 4.34444881 0.47266765 4.34444881 -2 4 C-1.34 2.68 -0.68 1.36 0 0 Z " fill="#DEE7FB" transform="translate(83,271)"/>
<path d="M0 0 C0 4.38968456 -2.12805101 5.76905739 -5 9 C-5.66 8.01 -6.32 7.02 -7 6 C-7.33 6.66 -7.66 7.32 -8 8 C-8.99 8 -9.98 8 -11 8 C-11 6.35 -11 4.7 -11 3 C-7.35206816 1.72746564 -3.8063457 0.67170806 0 0 Z " fill="#304BB5" transform="translate(174,228)"/>
<path d="M0 0 C0.33 0.99 0.66 1.98 1 3 C-0.375 4.5 -0.375 4.5 -2 6 C-2.66 6 -3.32 6 -4 6 C-4.25523437 6.59296875 -4.51046875 7.1859375 -4.7734375 7.796875 C-6.11816498 10.21224538 -7.49214367 11.51211706 -9.625 13.25 C-10.25664063 13.77078125 -10.88828125 14.2915625 -11.5390625 14.828125 C-12.02117187 15.21484375 -12.50328125 15.6015625 -13 16 C-13.66 15.67 -14.32 15.34 -15 15 C-13.44221619 13.2456027 -11.87905295 11.49653989 -10.3125 9.75 C-9.44238281 8.77546875 -8.57226562 7.8009375 -7.67578125 6.796875 C-5.25206689 4.26347429 -2.7912151 2.11227089 0 0 Z " fill="#E5EAFA" transform="translate(133,120)"/>
<path d="M0 0 C0.33 0.99 0.66 1.98 1 3 C2.32 3 3.64 3 5 3 C5 3.66 5 4.32 5 5 C3.35443434 6.03435556 1.6829392 7.02763513 0 8 C-1.68477344 9.31037934 -3.35648543 10.63823078 -5 12 C-5 10.35 -5 8.7 -5 7 C-4.34 7 -3.68 7 -3 7 C-3.33 5.35 -3.66 3.7 -4 2 C-2.68 1.34 -1.36 0.68 0 0 Z " fill="#3F4FB5" transform="translate(132,185)"/>
<path d="M0 0 C8.20667274 4.22767989 13.24738123 11.32269275 18 19 C16.35 19.33 14.7 19.66 13 20 C13.0928125 18.824375 13.0928125 18.824375 13.1875 17.625 C13.125625 16.75875 13.06375 15.8925 13 15 C12.01 14.34 11.02 13.68 10 13 C10 12.01 10 11.02 10 10 C9.34 10 8.68 10 8 10 C8 9.34 8 8.68 8 8 C7.01 7.67 6.02 7.34 5 7 C2.3125 4.5625 2.3125 4.5625 0 2 C0 1.34 0 0.68 0 0 Z " fill="#4150A7" transform="translate(251,137)"/>
<path d="M0 0 C0.33 0 0.66 0 1 0 C1.02505615 1.03406982 1.0501123 2.06813965 1.07592773 3.13354492 C1.1703343 6.98213387 1.27047291 10.83055629 1.37231445 14.67895508 C1.41553784 16.34232681 1.45722146 18.00573932 1.49731445 19.66918945 C1.55532332 22.06474068 1.61892829 24.46008908 1.68359375 26.85546875 C1.70030624 27.5952446 1.71701874 28.33502045 1.73423767 29.09721375 C1.8407276 32.83645932 2.12187752 36.35938544 3 40 C2.01 40.495 2.01 40.495 1 41 C-0.29487016 37.11538953 -0.1232604 33.44116044 -0.09765625 29.39453125 C-0.0962413 28.55532639 -0.09482635 27.71612152 -0.09336853 26.85148621 C-0.08777215 24.17178784 -0.07522035 21.4921731 -0.0625 18.8125 C-0.05748453 16.99544392 -0.05292171 15.17838652 -0.04882812 13.36132812 C-0.03780391 8.90751987 -0.02054178 4.45377411 0 0 Z " fill="#DCE8FE" transform="translate(242,253)"/>
<path d="M0 0 C2.9375 0.75 2.9375 0.75 6 2 C6.6875 4 6.6875 4 7 6 C7.99 6.66 8.98 7.32 10 8 C10.73046875 10.1640625 10.73046875 10.1640625 11.1875 12.625 C11.34605469 13.44226563 11.50460937 14.25953125 11.66796875 15.1015625 C11.77753906 15.72804687 11.88710938 16.35453125 12 17 C6.7903685 12.39147983 2.97933262 6.24241121 0 0 Z " fill="#3A47A3" transform="translate(278,134)"/>
<path d="M0 0 C4 0 4 0 6.25 2 C6.8275 2.66 7.405 3.32 8 4 C7.67 4.99 7.34 5.98 7 7 C5.02 6.01 3.04 5.02 1 4 C1.33 5.32 1.66 6.64 2 8 C-4.875 4.25 -4.875 4.25 -6 2 C-4.68 2.33 -3.36 2.66 -2 3 C-1.34 2.01 -0.68 1.02 0 0 Z " fill="#3749B4" transform="translate(264,114)"/>
<path d="M0 0 C4.46171506 1.57472296 9.79688514 3.59377029 12 8 C7.375 11 7.375 11 4 11 C4 10.01 4 9.02 4 8 C4.99 8 5.98 8 7 8 C5.35142211 6.26899321 3.76462394 4.83187424 1.8125 3.4375 C1.214375 2.963125 0.61625 2.48875 0 2 C0 1.34 0 0.68 0 0 Z " fill="#384AB3" transform="translate(239,129)"/>
<path d="M0 0 C0.66 0.33 1.32 0.66 2 1 C2 1.66 2 2.32 2 3 C-9.88 3 -21.76 3 -34 3 C-34 2.67 -34 2.34 -34 2 C-33.07662842 1.97494385 -32.15325684 1.9498877 -31.2019043 1.92407227 C-27.77453584 1.82890955 -24.34733539 1.72967786 -20.92016602 1.62768555 C-19.43713985 1.5843867 -17.95406546 1.54270801 -16.47094727 1.50268555 C-14.33855661 1.44486042 -12.20640758 1.38120168 -10.07421875 1.31640625 C-8.79119873 1.27974854 -7.50817871 1.24309082 -6.1862793 1.20532227 C-2.97888449 1.13438766 -2.97888449 1.13438766 0 0 Z " fill="#ECF7FC" transform="translate(163,299)"/>
<path d="M0 0 C3.3503698 0.57764997 4.68233772 1.58576846 7 4 C7.61875 4.268125 8.2375 4.53625 8.875 4.8125 C12.14704884 6.64099788 13.81974931 8.94764904 16 12 C15.67 12.99 15.34 13.98 15 15 C10 10 5 5 0 0 Z " fill="#424FA2" transform="translate(327,181)"/>
<path d="M0 0 C1.32 0 2.64 0 4 0 C5.31626692 3.61973402 6 6.09567131 6 10 C5.34 10 4.68 10 4 10 C4 9.34 4 8.68 4 8 C3.34 8 2.68 8 2 8 C1.67 8.66 1.34 9.32 1 10 C1 8.02 1 6.04 1 4 C0.34 3.67 -0.32 3.34 -1 3 C-0.67 2.01 -0.34 1.02 0 0 Z " fill="#404EBE" transform="translate(274,173)"/>
<path d="M0 0 C0.66 0.33 1.32 0.66 2 1 C0.625 3.5 0.625 3.5 -1 6 C-1.66 6 -2.32 6 -3 6 C-3 6.66 -3 7.32 -3 8 C-3.66 8 -4.32 8 -5 8 C-5.33 8.99 -5.66 9.98 -6 11 C-7.65 11.33 -9.3 11.66 -11 12 C-7.72469104 7.36279281 -4.69564393 3.31457218 0 0 Z " fill="#3A4AAA" transform="translate(85,183)"/>
<path d="M0 0 C2.97 0 5.94 0 9 0 C9 0.99 9 1.98 9 3 C7.02 3.99 7.02 3.99 5 5 C5.99 6.485 5.99 6.485 7 8 C6.01 8 5.02 8 4 8 C0 1.125 0 1.125 0 0 Z " fill="#3A4AB5" transform="translate(223,292)"/>
<path d="M0 0 C1.32 0.33 2.64 0.66 4 1 C3.06409496 2.1055189 2.12620142 3.20935453 1.1875 4.3125 C0.66542969 4.92738281 0.14335938 5.54226562 -0.39453125 6.17578125 C-3.3373102 9.51952278 -3.3373102 9.51952278 -5 11 C-5.66 11 -6.32 11 -7 11 C-7 9.68 -7 8.36 -7 7 C-5.68 7 -4.36 7 -3 7 C-3 6.01 -3 5.02 -3 4 C-3.66 3.67 -4.32 3.34 -5 3 C-4.360625 2.87625 -3.72125 2.7525 -3.0625 2.625 C-2.0415625 2.315625 -2.0415625 2.315625 -1 2 C-0.67 1.34 -0.34 0.68 0 0 Z " fill="#3E4FAE" transform="translate(115,204)"/>
<path d="M0 0 C-2.31 2.31 -4.62 4.62 -7 7 C-7.99 6.67 -8.98 6.34 -10 6 C-9.625 3.0625 -9.625 3.0625 -9 0 C-5.66949014 -1.66525493 -3.5936106 -0.89840265 0 0 Z " fill="#3442B1" transform="translate(129,124)"/>
<path d="M0 0 C0.66 0.66 1.32 1.32 2 2 C0.25156882 3.12743666 -1.4988094 4.2518542 -3.25 5.375 C-4.22453125 6.00148437 -5.1990625 6.62796875 -6.203125 7.2734375 C-8.43521615 8.65134852 -10.63087422 9.88312642 -13 11 C-12.87890625 8.70703125 -12.87890625 8.70703125 -12 6 C-9.27734375 4.19921875 -9.27734375 4.19921875 -5.9375 2.6875 C-4.83277344 2.17574219 -3.72804688 1.66398438 -2.58984375 1.13671875 C-1.73519531 0.76160156 -0.88054687 0.38648438 0 0 Z " fill="#3F4BA9" transform="translate(83,158)"/>
<path d="M0 0 C2.125 0.9375 2.125 0.9375 4 2 C2.02 2.99 2.02 2.99 0 4 C0.99 4 1.98 4 3 4 C3.66 4.33 4.32 4.66 5 5 C3.71034824 6.37562854 2.37310707 7.70766393 1 9 C0.34 9 -0.32 9 -1 9 C-3.125 4.375 -3.125 4.375 -2 1 C-1.34 0.67 -0.68 0.34 0 0 Z " fill="#EFF2F2" transform="translate(331,279)"/>
<path d="M0 0 C1.15957207 3.47871621 0.77456651 4.34219645 -0.4375 7.6875 C-0.72496094 8.49574219 -1.01242187 9.30398438 -1.30859375 10.13671875 C-1.53675781 10.75160156 -1.76492188 11.36648438 -2 12 C-2.66 12 -3.32 12 -4 12 C-3.896875 12.763125 -3.79375 13.52625 -3.6875 14.3125 C-3.790625 15.199375 -3.89375 16.08625 -4 17 C-6.5 18.8125 -6.5 18.8125 -9 20 C-7.60008749 16.42892687 -6.09189713 12.92705498 -4.5 9.4375 C-4.0771875 8.50808594 -3.654375 7.57867187 -3.21875 6.62109375 C-2.18269045 4.39290158 -1.11323357 2.19039012 0 0 Z " fill="#414EA3" transform="translate(354,255)"/>
<path d="M0 0 C0.66 0.33 1.32 0.66 2 1 C0.75482035 2.13033298 -0.49636652 3.25405036 -1.75 4.375 C-2.44609375 5.00148438 -3.1421875 5.62796875 -3.859375 6.2734375 C-6.97854542 8.78926473 -8.95593635 10 -13 10 C-13.33 8.68 -13.66 7.36 -14 6 C-13.34 6 -12.68 6 -12 6 C-12 6.66 -12 7.32 -12 8 C-11.01 8 -10.02 8 -9 8 C-8.67 6.35 -8.34 4.7 -8 3 C-7.34 3.66 -6.68 4.32 -6 5 C-4.02 3.35 -2.04 1.7 0 0 Z " fill="#3948A8" transform="translate(323,266)"/>
<path d="M0 0 C0.66 0 1.32 0 2 0 C2.2475 0.763125 2.495 1.52625 2.75 2.3125 C4.12786359 5.27490672 5.4282841 6.11407501 8 8 C8 8.99 8 9.98 8 11 C8.99 11.33 9.98 11.66 11 12 C11 12.99 11 13.98 11 15 C7.42521604 13.55767936 5.88918552 11.83879097 3.8125 8.625 C3.30332031 7.85414063 2.79414062 7.08328125 2.26953125 6.2890625 C1.08492721 4.15313029 0.45206553 2.38559884 0 0 Z " fill="#394AA8" transform="translate(69,251)"/>
<path d="M0 0 C0.1875 2.3125 0.1875 2.3125 0 5 C-1.375 6.5625 -1.375 6.5625 -3 8 C-4.17574711 10.09989652 -4.17574711 10.09989652 -5 12 C-5.99 12 -6.98 12 -8 12 C-7.42655063 9.13275314 -7.1385485 8.1385485 -5 6 C-4.7834375 5.01 -4.7834375 5.01 -4.5625 4 C-3.90422827 1.65947831 -2.77130159 0 0 0 Z " fill="#314AB8" transform="translate(78,200)"/>
<path d="M0 0 C3 0 3 0 4.42578125 1.36328125 C4.94527344 1.90339844 5.46476562 2.44351563 6 3 C8.03232242 4.19599068 8.03232242 4.19599068 10.1875 5.1875 C10.90292969 5.53167969 11.61835938 5.87585938 12.35546875 6.23046875 C13.16951172 6.61138672 13.16951172 6.61138672 14 7 C14 7.33 14 7.66 14 8 C12.02 8 10.04 8 8 8 C8 7.34 8 6.68 8 6 C6.8553125 5.814375 6.8553125 5.814375 5.6875 5.625 C3 5 3 5 0 3 C0 2.01 0 1.02 0 0 Z " fill="#3944D0" transform="translate(304,200)"/>
<path d="M0 0 C0.33 0 0.66 0 1 0 C1.19421438 2.95803435 1.38066186 5.91620163 1.5625 8.875 C1.61857422 9.71675781 1.67464844 10.55851562 1.73242188 11.42578125 C1.78076172 12.23144531 1.82910156 13.03710938 1.87890625 13.8671875 C1.9260376 14.61081543 1.97316895 15.35444336 2.02172852 16.12060547 C2 18 2 18 1 20 C1.66 20 2.32 20 3 20 C3.33 21.98 3.66 23.96 4 26 C2.015625 24.703125 2.015625 24.703125 0 22 C-0.51822475 18.24363716 -0.374817 14.5329152 -0.25 10.75 C-0.23195312 9.71875 -0.21390625 8.6875 -0.1953125 7.625 C-0.14822712 5.08238936 -0.0824805 2.54166838 0 0 Z " fill="#ECF7FD" transform="translate(179,271)"/>
<path d="M0 0 C1.875 0.3125 1.875 0.3125 4 1 C4.66 1.99 5.32 2.98 6 4 C3 5 3 5 0 5 C-0.99 5.66 -1.98 6.32 -3 7 C-3.33 6.34 -3.66 5.68 -4 5 C-3.525625 4.54625 -3.05125 4.0925 -2.5625 3.625 C-0.90972192 2.06741796 -0.90972192 2.06741796 0 0 Z M-6 6 C-5.34 6.33 -4.68 6.66 -4 7 C-5.32 7.99 -6.64 8.98 -8 10 C-7.34 8.68 -6.68 7.36 -6 6 Z M-9 10 C-8.34 10.66 -7.68 11.32 -7 12 C-7.66 12 -8.32 12 -9 12 C-9 11.34 -9 10.68 -9 10 Z " fill="#F3F7FB" transform="translate(262,224)"/>
<path d="M0 0 C0.66 0 1.32 0 2 0 C2.103125 0.639375 2.20625 1.27875 2.3125 1.9375 C2.539375 2.618125 2.76625 3.29875 3 4 C3.99 4.33 4.98 4.66 6 5 C6.33 6.65 6.66 8.3 7 10 C3.90001254 9.66785849 2.9454988 8.9454988 0.6875 6.6875 C-1 4 -1 4 -0.75 1.6875 C-0.5025 1.130625 -0.255 0.57375 0 0 Z " fill="#334AB7" transform="translate(276,224)"/>
<path d="M0 0 C0.33 0.66 0.66 1.32 1 2 C1.66 2 2.32 2 3 2 C3 2.66 3 3.32 3 4 C5.11785113 5.11785113 5.11785113 5.11785113 8 6 C8 6.66 8 7.32 8 8 C8.66 8 9.32 8 10 8 C10 8.66 10 9.32 10 10 C5.25 9.25 5.25 9.25 3 7 C0.93125966 6.3574765 0.93125966 6.3574765 -1 6 C-0.67 4.02 -0.34 2.04 0 0 Z " fill="#3A48D0" transform="translate(134,182)"/>
<path d="M0 0 C0.33 0.66 0.66 1.32 1 2 C0.67 2.66 0.34 3.32 0 4 C0.66 4.33 1.32 4.66 2 5 C1.443125 5.12375 0.88625 5.2475 0.3125 5.375 C-3.36869519 6.36991762 -6.27565846 7.27565846 -9 10 C-9.99 9.67 -10.98 9.34 -12 9 C-8.04 6.03 -4.08 3.06 0 0 Z " fill="#E2ECF7" transform="translate(81,161)"/>
<path d="M0 0 C1.125 1.6875 1.125 1.6875 2 4 C1.125 6.75 1.125 6.75 0 9 C-2.475 8.01 -2.475 8.01 -5 7 C-5.33 7.66 -5.66 8.32 -6 9 C-6 6 -6 6 -4.6875 4.39453125 C-4.130625 3.87246094 -3.57375 3.35039062 -3 2.8125 C-2.443125 2.28269531 -1.88625 1.75289062 -1.3125 1.20703125 C-0.6628125 0.60955078 -0.6628125 0.60955078 0 0 Z " fill="#EFF4F7" transform="translate(180,224)"/>
<path d="M0 0 C0.99 0 1.98 0 3 0 C3 3 3 3 1.46875 4.60546875 C0.8190625 5.12753906 0.169375 5.64960938 -0.5 6.1875 C-1.1496875 6.71730469 -1.799375 7.24710938 -2.46875 7.79296875 C-2.9740625 8.19128906 -3.479375 8.58960938 -4 9 C-5.0625 6.625 -5.0625 6.625 -6 4 C-5.67 3.34 -5.34 2.68 -5 2 C-3.35 2.33 -1.7 2.66 0 3 C0 2.01 0 1.02 0 0 Z " fill="#3547B8" transform="translate(257,222)"/>
<path d="M0 0 C4.52615993 3.67832017 8.39424999 7.41086363 12 12 C11.34 12.66 10.68 13.32 10 14 C9.5875 13.4225 9.175 12.845 8.75 12.25 C6.50143175 9.35898368 3.979315 6.8743884 1.25 4.4375 C0 3 0 3 0 0 Z " fill="#EAF0FC" transform="translate(201,208)"/>
<path d="M0 0 C0.33 0.99 0.66 1.98 1 3 C-0.28062485 4.7074998 -1.62631655 6.36643049 -3 8 C-4.41657383 10.29418186 -5.70165595 12.63515906 -7 15 C-7.66 14.34 -8.32 13.68 -9 13 C-9 12.01 -9 11.02 -9 10 C-8.34 10 -7.68 10 -7 10 C-6.71125 9.195625 -6.4225 8.39125 -6.125 7.5625 C-5 5 -5 5 -3 4 C-2.34 3.01 -1.68 2.02 -1 1 C-0.67 0.67 -0.34 0.34 0 0 Z " fill="#E3EDFB" transform="translate(132,147)"/>
<path d="M0 0 C0 1.32 0 2.64 0 4 C-5.75 5.125 -5.75 5.125 -8 4 C-8 3.34 -8 2.68 -8 2 C-8.66 1.34 -9.32 0.68 -10 0 C-2.25 -1.125 -2.25 -1.125 0 0 Z " fill="#3C4DCB" transform="translate(126,170)"/>
<path d="M0 0 C2.31242092 2.16323247 4.0156396 4.37647804 5.6875 7.0625 C6.12449219 7.75472656 6.56148438 8.44695312 7.01171875 9.16015625 C8 11 8 11 8 13 C7.01 12.67 6.02 12.34 5 12 C4.67 11.01 4.34 10.02 4 9 C3.01 8.67 2.02 8.34 1 8 C1 6.68 1 5.36 1 4 C0.34 3.67 -0.32 3.34 -1 3 C-0.67 2.01 -0.34 1.02 0 0 Z " fill="#E4EBFA" transform="translate(283,142)"/>
<path d="M0 0 C4.13621084 3.3810038 7.81316569 6.66590534 11 11 C6.32894208 9.44298069 2.91294315 6.91552627 -1 4 C-0.67 2.68 -0.34 1.36 0 0 Z " fill="#E9EFFD" transform="translate(213,220)"/>
<path d="M0 0 C2 2 2 2 2.8125 4.0625 C3.87359896 6.28389075 3.87359896 6.28389075 6.625 6.75 C7.40875 6.8325 8.1925 6.915 9 7 C9.33 8.32 9.66 9.64 10 11 C7.14458787 10.91601729 5.43760967 10.39043615 3.296875 8.48046875 C0.16299122 5.00244352 0.16299122 5.00244352 -1 3 C-0.67 2.01 -0.34 1.02 0 0 Z " fill="#E1EAF9" transform="translate(117,291)"/>
<path d="M0 0 C1.32 0.33 2.64 0.66 4 1 C3.04578192 2.14926266 2.08647955 3.29430541 1.125 4.4375 C0.59132813 5.07558594 0.05765625 5.71367187 -0.4921875 6.37109375 C-2 8 -2 8 -4 9 C-4 8.01 -4 7.02 -4 6 C-4.66 5.67 -5.32 5.34 -6 5 C-5.01 5 -4.02 5 -3 5 C-3 4.34 -3 3.68 -3 3 C-2.01 3 -1.02 3 0 3 C0 2.01 0 1.02 0 0 Z " fill="#414FB6" transform="translate(123,196)"/>
<path d="M0 0 C5.94 0.99 5.94 0.99 12 2 C11.67 2.99 11.34 3.98 11 5 C7.37 4.34 3.74 3.68 0 3 C0 2.01 0 1.02 0 0 Z " fill="#3E50B0" transform="translate(218,97)"/>
<path d="M0 0 C4.03321763 1.21934486 7.54269479 2.55954927 11 5 C11 5.66 11 6.32 11 7 C12.32 7.66 13.64 8.32 15 9 C14.01 9.495 14.01 9.495 13 10 C10.8304939 8.52485505 8.66436293 7.0451561 6.5 5.5625 C5.87996094 5.14162109 5.25992188 4.72074219 4.62109375 4.28710938 C3.06289602 3.21691863 1.52921949 2.11120482 0 1 C0 0.67 0 0.34 0 0 Z " fill="#DDE6FB" transform="translate(70,286)"/>
<path d="M0 0 C2.1875 0.3125 2.1875 0.3125 4 1 C2.02 1.99 2.02 1.99 0 3 C0 7.62 0 12.24 0 17 C-0.33 17 -0.66 17 -1 17 C-1.06058594 16.15695312 -1.12117188 15.31390625 -1.18359375 14.4453125 C-1.26738281 13.34960938 -1.35117187 12.25390625 -1.4375 11.125 C-1.51871094 10.03445313 -1.59992188 8.94390625 -1.68359375 7.8203125 C-1.83001703 5.05271029 -1.83001703 5.05271029 -3 3 C-1.75 1.4375 -1.75 1.4375 0 0 Z " fill="#3340B5" transform="translate(307,275)"/>
<path d="M0 0 C1.32 1.32 2.64 2.64 4 4 C0.93882432 6.62386487 0.26826873 7 -4 7 C-3.43628586 3.73045798 -2.50037734 2.17424117 0 0 Z " fill="#FAF9F2" transform="translate(115,211)"/>
<path d="M0 0 C0.86625 0.556875 0.86625 0.556875 1.75 1.125 C0.1 3.105 -1.55 5.085 -3.25 7.125 C-5.3885485 4.9864515 -5.67655063 3.99224686 -6.25 1.125 C-2.80384615 -1.09038462 -2.80384615 -1.09038462 0 0 Z " fill="#3449B0" transform="translate(59.25,178.875)"/>
<path d="M0 0 C0.66 0.99 1.32 1.98 2 3 C1.00269864 5.4932534 0.34925469 6.77467439 -1.9375 8.25 C-4 9 -4 9 -7 9 C-7.66 8.34 -8.32 7.68 -9 7 C-8.2575 6.95875 -7.515 6.9175 -6.75 6.875 C-2.90448224 5.65142617 -1.95694517 3.40653418 0 0 Z " fill="#E0E9F5" transform="translate(111,145)"/>
<path d="M0 0 C3.81684226 1.55500981 6.19195732 4.03595495 9 7 C8.01 7.495 8.01 7.495 7 8 C3.9375 6.875 3.9375 6.875 1 5 C0.125 2.3125 0.125 2.3125 0 0 Z " fill="#E3EDF6" transform="translate(259,118)"/>
<path d="M0 0 C0.33 0.66 0.66 1.32 1 2 C-6.92 1.67 -14.84 1.34 -23 1 C-23 0.67 -23 0.34 -23 0 C-19.91722144 -0.1974877 -16.8337715 -0.38123332 -13.75 -0.5625 C-12.87730469 -0.61857422 -12.00460938 -0.67464844 -11.10546875 -0.73242188 C-10.26113281 -0.78076172 -9.41679687 -0.82910156 -8.546875 -0.87890625 C-7.77182617 -0.9260376 -6.99677734 -0.97316895 -6.19824219 -1.02172852 C-3.93224937 -0.99933032 -2.13494698 -0.75942444 0 0 Z " fill="#B5BCE2" transform="translate(213,117)"/>
<path d="M0 0 C-2.87164566 2.70272533 -4.30991841 3.94791837 -8.3125 4.25 C-9.199375 4.1675 -10.08625 4.085 -11 4 C-9.37064584 1.34158005 -8.51624223 0.16777872 -5.5 -0.8125 C-3 -1 -3 -1 0 0 Z " fill="#F0F0F3" transform="translate(244,248)"/>
<path d="M0 0 C2.16874252 0.50603992 3.99967627 0.99983813 6 2 C6 2.66 6 3.32 6 4 C6.99 4.33 7.98 4.66 9 5 C9 5.99 9 6.98 9 8 C5.4213696 6.34832443 2.25179812 4.21713508 -1 2 C-0.67 1.34 -0.34 0.68 0 0 Z " fill="#E3EAF7" transform="translate(245,130)"/>
<path d="M0 0 C0.66 0.33 1.32 0.66 2 1 C-0.47989913 3.85818883 -3.13646878 5.19893393 -6.5625 6.75 C-8.01849609 7.42289062 -8.01849609 7.42289062 -9.50390625 8.109375 C-10.32761719 8.40328125 -11.15132813 8.6971875 -12 9 C-12.66 8.67 -13.32 8.34 -14 8 C-11.7136988 6.63597957 -9.42178251 5.28365726 -7.125 3.9375 C-6.47402344 3.54755859 -5.82304687 3.15761719 -5.15234375 2.75585938 C-3.46934275 1.77555467 -1.73703801 0.88101568 0 0 Z " fill="#39489E" transform="translate(329,289)"/>
<path d="M0 0 C-3.40219265 2.74792483 -7.48464588 6 -12 6 C-11.67 4.68 -11.34 3.36 -11 2 C-9.02 2.495 -9.02 2.495 -7 3 C-7 2.34 -7 1.68 -7 1 C-3.375 -1.125 -3.375 -1.125 0 0 Z " fill="#E1EAFA" transform="translate(326,291)"/>
<path d="M0 0 C7.48291572 6.15034169 7.48291572 6.15034169 10 10 C6.43949035 9.69481346 4.99964963 8.99971192 2.1875 6.6875 C0 4 0 4 0 0 Z " fill="#EFF1FE" transform="translate(280,240)"/>
<path d="M0 0 C-1.49097658 3.7952131 -3.75700849 5.61042731 -7 8 C-6.74438677 5.6568787 -6.40729228 3.32156597 -6 1 C-4 0 -4 0 0 0 Z " fill="#3644B4" transform="translate(249,234)"/>
<path d="M0 0 C0.99 0.33 1.98 0.66 3 1 C2.34 1 1.68 1 1 1 C0.79375 1.7425 0.5875 2.485 0.375 3.25 C-1.39615589 6.79231177 -3.63427951 8.02446841 -7 10 C-7.66 9.67 -8.32 9.34 -9 9 C-6.03 6.03 -3.06 3.06 0 0 Z " fill="#D2DDF5" transform="translate(261,223)"/>
<path d="M0 0 C0.33 0.66 0.66 1.32 1 2 C0.2578125 3.8046875 0.2578125 3.8046875 -0.875 5.875 C-2.35425049 8.59557957 -3.26023686 11.00364844 -4 14 C-5.5625 16.25 -5.5625 16.25 -7 18 C-5.92785334 11.90569268 -4.56200183 4.56200183 0 0 Z " fill="#3C49A1" transform="translate(73,196)"/>
<path d="M0 0 C1.1446875 0.3403125 1.1446875 0.3403125 2.3125 0.6875 C1.3125 2.6875 1.3125 2.6875 -1.6875 4.6875 C-2.3475 5.3475 -3.0075 6.0075 -3.6875 6.6875 C-4.6775 6.3575 -5.6675 6.0275 -6.6875 5.6875 C-5.36299661 1.71398982 -4.47633997 -0.52050465 0 0 Z " fill="#2F4ABB" transform="translate(154.6875,99.3125)"/>
<path d="M0 0 C1.65 0 3.3 0 5 0 C5.33 1.65 5.66 3.3 6 5 C4.35 5 2.7 5 1 5 C0.67 3.35 0.34 1.7 0 0 Z " fill="#2F4DB5" transform="translate(290,242)"/>
<path d="M0 0 C0.66 0 1.32 0 2 0 C2 0.66 2 1.32 2 2 C2.94875 1.95875 3.8975 1.9175 4.875 1.875 C8 2 8 2 10 4 C9.34 4.66 8.68 5.32 8 6 C5.03 5.01 2.06 4.02 -1 3 C-0.67 2.01 -0.34 1.02 0 0 Z M10 2 C12 3 12 3 12 3 Z " fill="#4855B6" transform="translate(308,170)"/>
<path d="M0 0 C0.33 0.66 0.66 1.32 1 2 C0.01 3.485 0.01 3.485 -1 5 C-1.70164642 6.98799818 -2.37372872 8.98698517 -3 11 C-3.66 11 -4.32 11 -5 11 C-5.33 11.99 -5.66 12.98 -6 14 C-6.33 13.34 -6.66 12.68 -7 12 C-5.8203125 9.43359375 -5.8203125 9.43359375 -4.125 6.4375 C-3.57070312 5.44621094 -3.01640625 4.45492187 -2.4453125 3.43359375 C-1 1 -1 1 0 0 Z " fill="#3D4BA2" transform="translate(128,156)"/>
<path d="M0 0 C0.99 0.33 1.98 0.66 3 1 C1.875 3.4375 1.875 3.4375 0 6 C-3.1875 6.8125 -3.1875 6.8125 -6 7 C-4.02 4.69 -2.04 2.38 0 0 Z " fill="#E3EBFD" transform="translate(198,206)"/>
<path d="M0 0 C4.875 2.625 4.875 2.625 6 6 C4.68 6.33 3.36 6.66 2 7 C0.4375 5.1875 0.4375 5.1875 -1 3 C-0.67 2.01 -0.34 1.02 0 0 Z " fill="#2E4ABC" transform="translate(151,195)"/>
<path d="M0 0 C3.10551666 0 4.35261084 0.5393715 7 2 C6.67 2.99 6.34 3.98 6 5 C4.02 5 2.04 5 0 5 C0 3.35 0 1.7 0 0 Z " fill="#3D4CBE" transform="translate(114,129)"/>
<path d="M0 0 C5.45479185 0.56820748 9.91059256 1.94637945 15 4 C14.67 4.66 14.34 5.32 14 6 C9.27934033 4.45730076 4.58335908 2.92205381 0 1 C0 0.67 0 0.34 0 0 Z " fill="#4E5AAB" transform="translate(230,102)"/>
<path d="M0 0 C2.64465038 3.1254959 3.84414715 6.08788267 5 10 C3.68 10 2.36 10 1 10 C0.63883954 8.5225254 0.28624952 7.04295325 -0.0625 5.5625 C-0.25972656 4.73878906 -0.45695312 3.91507813 -0.66015625 3.06640625 C-0.82837891 2.04353516 -0.82837891 2.04353516 -1 1 C-0.67 0.67 -0.34 0.34 0 0 Z " fill="#E6F1FD" transform="translate(346,202)"/>
<path d="M0 0 C2.375 0.25 2.375 0.25 5 1 C6.1875 3 6.1875 3 7 5 C7.66 5.33 8.32 5.66 9 6 C8.34 6.66 7.68 7.32 7 8 C5.83035398 6.8572081 4.66435444 5.71068285 3.5 4.5625 C2.8503125 3.92441406 2.200625 3.28632813 1.53125 2.62890625 C0 1 0 1 0 0 Z " fill="#3949D0" transform="translate(146,197)"/>
<path d="M0 0 C0.66 0.33 1.32 0.66 2 1 C2 1.99 2 2.98 2 4 C-3.94 3.67 -9.88 3.34 -16 3 C-16 2.67 -16 2.34 -16 2 C-15.01257813 1.93941406 -14.02515625 1.87882813 -13.0078125 1.81640625 C-11.72648437 1.73261719 -10.44515625 1.64882812 -9.125 1.5625 C-7.84882813 1.48128906 -6.57265625 1.40007812 -5.2578125 1.31640625 C-2.11699848 1.20793973 -2.11699848 1.20793973 0 0 Z " fill="#D1DAF8" transform="translate(298,187)"/>
<path d="M0 0 C0.99 0.33 1.98 0.66 3 1 C2.67 3.31 2.34 5.62 2 8 C1.01 8.33 0.02 8.66 -1 9 C-1.09765625 2.84765625 -1.09765625 2.84765625 -1 1 C-0.67 0.67 -0.34 0.34 0 0 Z " fill="#3248B6" transform="translate(291,144)"/>
<path d="M0 0 C-0.66 1.65 -1.32 3.3 -2 5 C-3.65 3.35 -5.3 1.7 -7 0 C-4.3333581 -1.33332095 -2.83319697 -0.67102033 0 0 Z " fill="#3D47B9" transform="translate(280,129)"/>
<path d="M0 0 C9.70080863 -0.16442049 9.70080863 -0.16442049 13 1 C14.1328125 3.046875 14.1328125 3.046875 15 5 C13.06077578 4.54901762 11.12366406 4.08894441 9.1875 3.625 C8.10855469 3.36976562 7.02960938 3.11453125 5.91796875 2.8515625 C3 2 3 2 0 0 Z " fill="#D6DBF7" transform="translate(216,119)"/>
<path d="M0 0 C3.59930552 2.62652025 6.07666989 4.93963643 8 9 C7.67 9.66 7.34 10.32 7 11 C5.82439821 9.73742767 4.65977135 8.46462916 3.5 7.1875 C2.8503125 6.47980469 2.200625 5.77210938 1.53125 5.04296875 C0 3 0 3 0 0 Z " fill="#3B47A2" transform="translate(157,289)"/>
<path d="M0 0 C0.28875 0.61875 0.5775 1.2375 0.875 1.875 C1.93720042 4.13325765 1.93720042 4.13325765 4 6 C4.625 8.625 4.625 8.625 5 11 C4.01 11.495 4.01 11.495 3 12 C2.30062798 10.5682384 1.61587282 9.12932968 0.9375 7.6875 C0.55464844 6.88699219 0.17179687 6.08648437 -0.22265625 5.26171875 C-1 3 -1 3 0 0 Z " fill="#E6EAFC" transform="translate(50,254)"/>
<path d="M0 0 C0.928125 0.165 1.85625 0.33 2.8125 0.5 C5.95621353 1.07748388 5.95621353 1.07748388 9 1 C6.03 3.475 6.03 3.475 3 6 C3 5.01 3 4.02 3 3 C2.01 2.67 1.02 2.34 0 2 C0 1.34 0 0.68 0 0 Z " fill="#3047A6" transform="translate(233,242)"/>
<path d="M0 0 C1.7074998 1.28062485 3.37373596 2.61767557 5 4 C5 4.66 5 5.32 5 6 C2.03 6 -0.94 6 -4 6 C-3.34 5.34 -2.68 4.68 -2 4 C-1.01 4 -0.02 4 1 4 C0.67 2.68 0.34 1.36 0 0 Z " fill="#D6DEFA" transform="translate(224,231)"/>
<path d="M0 0 C0.33 0.66 0.66 1.32 1 2 C0.236875 2.7425 -0.52625 3.485 -1.3125 4.25 C-3.95571199 6.823554 -3.95571199 6.823554 -5.6875 9.3125 C-6.3371875 10.1478125 -6.3371875 10.1478125 -7 11 C-7.66 11 -8.32 11 -9 11 C-7.59155282 7.78475695 -5.89655214 5.67816132 -3.375 3.25 C-2.74335937 2.63640625 -2.11171875 2.0228125 -1.4609375 1.390625 C-0.73777344 0.70226562 -0.73777344 0.70226562 0 0 Z " fill="#EDF5FD" transform="translate(115,209)"/>
<path d="M0 0 C3.01822323 3.38041002 3.01822323 3.38041002 2.9375 6.125 C1.72986449 8.54027102 0.47128202 9.0433747 -2 10 C-1.54177532 6.53058454 -1.10868317 3.32604951 0 0 Z " fill="#D9E3F6" transform="translate(48,200)"/>
<path d="M0 0 C0.66 1.65 1.32 3.3 2 5 C0.1875 5.6875 0.1875 5.6875 -2 6 C-3.75 4.5625 -3.75 4.5625 -5 3 C-2.25 0 -2.25 0 0 0 Z " fill="#ECF3F3" transform="translate(143,114)"/>
<path d="M0 0 C1.68762851 1.6454378 3.3540349 3.31288577 5 5 C5 5.33 5 5.66 5 6 C2.36 6 -0.28 6 -3 6 C-2.01 4.02 -1.02 2.04 0 0 Z " fill="#E1F2F5" transform="translate(224,296)"/>
<path d="M0 0 C0.66 1.32 1.32 2.64 2 4 C1.01 4.33 0.02 4.66 -1 5 C-1.66 5.66 -2.32 6.32 -3 7 C-4.64991582 7.70710678 -6.31562256 8.37943989 -8 9 C-7.04270084 7.87411986 -6.08412105 6.7493285 -5.125 5.625 C-4.59132813 4.99851563 -4.05765625 4.37203125 -3.5078125 3.7265625 C-2.38567993 2.44163349 -1.20628025 1.20628025 0 0 Z " fill="#EDF6F8" transform="translate(124,200)"/>
<path d="M0 0 C2.9375 0.75 2.9375 0.75 6 2 C7 4 7 4 7 6 C6.34 6.66 5.68 7.32 5 8 C0 2.25 0 2.25 0 0 Z " fill="#414EB6" transform="translate(278,134)"/>
<path d="M0 0 C3.71888239 0.50712033 6.73454239 1.11608215 10 3 C10 3.66 10 4.32 10 5 C9.34 5 8.68 5 8 5 C7.67 5.66 7.34 6.32 7 7 C6.34 6.67 5.68 6.34 5 6 C5 5.01 5 4.02 5 3 C2.525 2.01 2.525 2.01 0 1 C0 0.67 0 0.34 0 0 Z " fill="#3846A8" transform="translate(228,124)"/>
<path d="M0 0 C1.32 0 2.64 0 4 0 C4 0.66 4 1.32 4 2 C6.475 2.99 6.475 2.99 9 4 C6 5 6 5 2 5 C2 4.34 2 3.68 2 3 C1.34 3 0.68 3 0 3 C0 2.01 0 1.02 0 0 Z " fill="#FAFDED" transform="translate(230,105)"/>
<path d="M0 0 C2 2 2 2 2 4 C2.31802943 5.66965451 2.64984951 7.33678518 3 9 C-1.875 4.375 -1.875 4.375 -3 1 C-2.01 0.67 -1.02 0.34 0 0 Z " fill="#E3EDF8" transform="translate(61,271)"/>
<path d="M0 0 C0 4.38968456 -2.12805101 5.76905739 -5 9 C-6.04059132 5.87822605 -6.32284898 4.92916561 -5 2 C-2.4375 0.75 -2.4375 0.75 0 0 Z " fill="#3646AC" transform="translate(174,228)"/>
<path d="M0 0 C2.00720923 0.28674418 4.0085944 0.61866701 6 1 C5.3125 2.9375 5.3125 2.9375 4 5 C1.375 5.75 1.375 5.75 -1 6 C-1.042721 4.33388095 -1.04063832 2.66617115 -1 1 C-0.67 0.67 -0.34 0.34 0 0 Z " fill="#ECF5FA" transform="translate(297,170)"/>
<path d="M0 0 C0.66 0.33 1.32 0.66 2 1 C0.5 3.9375 0.5 3.9375 -2 7 C-4.76486571 7.83895734 -7.07439213 7.90247974 -10 8 C-8 6 -8 6 -5 4.5625 C-1.77974457 3.19148236 -1.77974457 3.19148236 0 0 Z " fill="#3B4999" transform="translate(109,145)"/>
<path d="M0 0 C0.99 0.33 1.98 0.66 3 1 C1.68775452 4.93673644 0.08089673 7.22719294 -3 10 C-2.21302675 6.58978257 -1.12880057 3.31114834 0 0 Z " fill="#3645A2" transform="translate(328,256)"/>
<path d="M0 0 C0.33 0 0.66 0 1 0 C1 2.64 1 5.28 1 8 C0.01 8 -0.98 8 -2 8 C-2.125 5.125 -2.125 5.125 -2 2 C-1.34 1.34 -0.68 0.68 0 0 Z " fill="#324BB5" transform="translate(360,248)"/>
<path d="M0 0 C3 4 3 4 2.85546875 6.578125 C2.63503906 7.45984375 2.41460937 8.3415625 2.1875 9.25 C1.97480469 10.14203125 1.76210938 11.0340625 1.54296875 11.953125 C1.36378906 12.62859375 1.18460937 13.3040625 1 14 C0.67 14 0.34 14 0 14 C0 9.38 0 4.76 0 0 Z " fill="#C9D1EB" transform="translate(336,228)"/>
<path d="M0 0 C3.875 0.875 3.875 0.875 5 2 C5.04080783 3.99958364 5.04254356 6.00045254 5 8 C2.74754119 5.31158141 1.11786042 3.35358125 0 0 Z " fill="#404DB0" transform="translate(343,196)"/>
<path d="M0 0 C0.99 0.33 1.98 0.66 3 1 C1.68 3.64 0.36 6.28 -1 9 C-1.66 8.01 -2.32 7.02 -3 6 C-2.01 4.02 -1.02 2.04 0 0 Z " fill="#E3EEF8" transform="translate(70,196)"/>
<path d="M0 0 C0.66 0.33 1.32 0.66 2 1 C2 1.66 2 2.32 2 3 C1.34 3 0.68 3 0 3 C0 3.66 0 4.32 0 5 C-0.99 5.33 -1.98 5.66 -3 6 C-3.66 5.01 -4.32 4.02 -5 3 C-2.625 1.4375 -2.625 1.4375 0 0 Z " fill="#2D4AB6" transform="translate(346,279)"/>
<path d="M0 0 C0.33 0.66 0.66 1.32 1 2 C1.66 2 2.32 2 3 2 C3 1.34 3 0.68 3 0 C5.475 0.99 5.475 0.99 8 2 C7.34 2.66 6.68 3.32 6 4 C5.34 3.67 4.68 3.34 4 3 C3.67 3.66 3.34 4.32 3 5 C3 4.34 3 3.68 3 3 C1.35 2.67 -0.3 2.34 -2 2 C-1.34 1.34 -0.68 0.68 0 0 Z " fill="#4152BE" transform="translate(307,195)"/>
<path d="M0 0 C0.99 0.33 1.98 0.66 3 1 C3.33 4.96 3.66 8.92 4 13 C3.67 13 3.34 13 3 13 C2.01 8.71 1.02 4.42 0 0 Z " fill="#E6EAFC" transform="translate(277,171)"/>
<path d="M0 0 C0 0.66 0 1.32 0 2 C-0.99 2 -1.98 2 -3 2 C-3 2.66 -3 3.32 -3 4 C-3.66 4 -4.32 4 -5 4 C-5.33 4.66 -5.66 5.32 -6 6 C-7.32 5.34 -8.64 4.68 -10 4 C-8.71086513 3.32845067 -7.41859796 2.66291141 -6.125 2 C-5.40570313 1.62875 -4.68640625 1.2575 -3.9453125 0.875 C-2 0 -2 0 0 0 Z " fill="#E6EEFC" transform="translate(93,156)"/>
<path d="M0 0 C4.03384128 2.07143201 5.92856799 3.96615872 8 8 C6.35 8.33 4.7 8.66 3 9 C3.0928125 7.824375 3.0928125 7.824375 3.1875 6.625 C3.125625 5.75875 3.06375 4.8925 3 4 C2.01 3.34 1.02 2.68 0 2 C0 1.34 0 0.68 0 0 Z " fill="#3E4DB7" transform="translate(261,148)"/>
<path d="M0 0 C-0.99 0.33 -1.98 0.66 -3 1 C-3.33 1.66 -3.66 2.32 -4 3 C-6.64 3 -9.28 3 -12 3 C-8.61613364 -0.38386636 -4.56431325 -1.75550509 0 0 Z " fill="#4B59AF" transform="translate(179,121)"/>
<path d="M0 0 C1.11375 0.598125 2.2275 1.19625 3.375 1.8125 C4.00148438 2.14894531 4.62796875 2.48539062 5.2734375 2.83203125 C7 4 7 4 9 7 C2.29787234 5.06382979 2.29787234 5.06382979 0 2 C0 1.34 0 0.68 0 0 Z " fill="#3D4AA7" transform="translate(70,287)"/>
<path d="M0 0 C0.66 0 1.32 0 2 0 C2.33 0.99 2.66 1.98 3 3 C-0.465 4.485 -0.465 4.485 -4 6 C-2.84826645 3.53199953 -1.95216435 1.95216435 0 0 Z " fill="#3843A9" transform="translate(336,283)"/>
<path d="M0 0 C0 1.65 0 3.3 0 5 C-0.99 5.495 -0.99 5.495 -2 6 C-2.66 5.67 -3.32 5.34 -4 5 C-4.33 5.66 -4.66 6.32 -5 7 C-5 4 -5 4 -3.0625 1.8125 C-1 0 -1 0 0 0 Z " fill="#E5EEFA" transform="translate(187,218)"/>
<path d="M0 0 C0.99 0 1.98 0 3 0 C2.75 1.875 2.75 1.875 2 4 C-0.0625 5.25 -0.0625 5.25 -2 6 C-2 3 -2 3 0 0 Z " fill="#3249B6" transform="translate(218,211)"/>
<path d="M0 0 C0 0.66 0 1.32 0 2 C-0.66 2 -1.32 2 -2 2 C-2.33 2.99 -2.66 3.98 -3 5 C-3.99 5.33 -4.98 5.66 -6 6 C-6 3 -6 3 -4.6875 1.3125 C-3 0 -3 0 0 0 Z " fill="#2D4AB9" transform="translate(122,195)"/>
<path d="M0 0 C2.31 0 4.62 0 7 0 C7 0.99 7 1.98 7 3 C3.86650268 4.04449911 3.01031744 3.93423645 0 3 C0 2.01 0 1.02 0 0 Z " fill="#F9FDEC" transform="translate(281,178)"/>
<path d="M0 0 C-2 3 -2 3 -3.9453125 3.51171875 C-4.66460937 3.56972656 -5.38390625 3.62773437 -6.125 3.6875 C-8.043125 3.8421875 -8.043125 3.8421875 -10 4 C-6.58908673 0.88145073 -4.68377325 -0.53528837 0 0 Z " fill="#424FAB" transform="translate(98,177)"/>
<path d="M0 0 C-1.28813342 0.83878455 -2.58063256 1.67086783 -3.875 2.5 C-4.59429687 2.9640625 -5.31359375 3.428125 -6.0546875 3.90625 C-8 5 -8 5 -10 5 C-10 3 -10 3 -8.75 1.4375 C-5.6546735 -1.10508962 -3.77392659 -1.25797553 0 0 Z " fill="#404DA5" transform="translate(148,111)"/>
<path d="M0 0 C0 1.32 0 2.64 0 4 C-2.02045442 3.39816251 -4.02111039 2.72693904 -6 2 C-6.33 1.34 -6.66 0.68 -7 0 C-3.98968256 -0.93423645 -3.13349732 -1.04449911 0 0 Z " fill="#3B4BAC" transform="translate(254,109)"/>
<path d="M0 0 C5.75 0.875 5.75 0.875 8 2 C7.67 2.99 7.34 3.98 7 5 C4.525 4.01 4.525 4.01 2 3 C2 2.34 2 1.68 2 1 C1.34 0.67 0.68 0.34 0 0 Z " fill="#EFF2FE" transform="translate(232,104)"/>
<path d="M0 0 C0.99 0 1.98 0 3 0 C3 1.98 3 3.96 3 6 C1.68 5.34 0.36 4.68 -1 4 C-0.67 2.68 -0.34 1.36 0 0 Z " fill="#3845D0" transform="translate(240,99)"/>
<path d="M0 0 C1.65 0 3.3 0 5 0 C5.33 1.32 5.66 2.64 6 4 C5.01 4.33 4.02 4.66 3 5 C2.01 3.35 1.02 1.7 0 0 Z " fill="#3744D3" transform="translate(227,296)"/>
<path d="M0 0 C1.32 0 2.64 0 4 0 C4.33 1.32 4.66 2.64 5 4 C3.68 4 2.36 4 1 4 C0.67 2.68 0.34 1.36 0 0 Z " fill="#3947D1" transform="translate(90,272)"/>
<path d="M0 0 C0.66 0.99 1.32 1.98 2 3 C1.125 6.1875 1.125 6.1875 0 9 C-0.33 9 -0.66 9 -1 9 C-1.33 6.69 -1.66 4.38 -2 2 C-1.34 2 -0.68 2 0 2 C0 1.34 0 0.68 0 0 Z " fill="#4A55BA" transform="translate(332,249)"/>
<path d="M0 0 C0.66 0.33 1.32 0.66 2 1 C1.67 3.31 1.34 5.62 1 8 C0.34 8 -0.32 8 -1 8 C-1.04241723 5.66705225 -1.04092937 3.33297433 -1 1 C-0.67 0.67 -0.34 0.34 0 0 Z " fill="#324AB4" transform="translate(41,244)"/>
<path d="M0 0 C3.63 0 7.26 0 11 0 C8.60236815 2.39763185 7.66726502 2.34280586 4.375 2.625 C3.55773437 2.69976562 2.74046875 2.77453125 1.8984375 2.8515625 C1.27195313 2.90054688 0.64546875 2.94953125 0 3 C0 2.01 0 1.02 0 0 Z " fill="#2E3E99" transform="translate(220,237)"/>
<path d="M0 0 C1.32 0.66 2.64 1.32 4 2 C2.35 3.65 0.7 5.3 -1 7 C-1.04254356 5.00045254 -1.04080783 2.99958364 -1 1 C-0.67 0.67 -0.34 0.34 0 0 Z " fill="#E1EBFA" transform="translate(74,189)"/>
<path d="M0 0 C1.98 0.99 3.96 1.98 6 3 C6 3.66 6 4.32 6 5 C1.25 4.25 1.25 4.25 -1 2 C-0.67 1.34 -0.34 0.68 0 0 Z " fill="#E5ECFB" transform="translate(319,177)"/>
<path d="M0 0 C0.33 0.66 0.66 1.32 1 2 C1.99 2.33 2.98 2.66 4 3 C3.01 3.99 2.02 4.98 1 6 C0.01 5.01 -0.98 4.02 -2 3 C-1.34 2.01 -0.68 1.02 0 0 Z " fill="#EBE9F8" transform="translate(82,179)"/>
<path d="M0 0 C0.33 0.99 0.66 1.98 1 3 C-2.75 6 -2.75 6 -5 6 C-5 5.34 -5 4.68 -5 4 C-5.66 3.67 -6.32 3.34 -7 3 C-5.5459375 2.5359375 -5.5459375 2.5359375 -4.0625 2.0625 C-1.15934208 1.30476658 -1.15934208 1.30476658 0 0 Z " fill="#E1E8F7" transform="translate(151,129)"/>
<path d="M0 0 C1.98 0 3.96 0 6 0 C5 3 5 3 2.9375 4.1875 C2.298125 4.455625 1.65875 4.72375 1 5 C0.67 3.35 0.34 1.7 0 0 Z " fill="#4551B0" transform="translate(130,117)"/>
<path d="M0 0 C1.9451 2.91765 2.45276317 4.62537285 3 8 C2.01 8.33 1.02 8.66 0 9 C-0.84454356 5.62182575 -1.10844919 3.32534757 0 0 Z " fill="#EAEFFC" transform="translate(282,285)"/>
<path d="M0 0 C0.66 1.32 1.32 2.64 2 4 C1.01 4.66 0.02 5.32 -1 6 C-1.99 5.34 -2.98 4.68 -4 4 C-2.68 2.68 -1.36 1.36 0 0 Z " fill="#E7EFFD" transform="translate(180,224)"/>
<path d="M0 0 C0.99 0 1.98 0 3 0 C3 0.99 3 1.98 3 3 C0.5 5.1875 0.5 5.1875 -2 7 C-2 5.68 -2 4.36 -2 3 C-1.34 3 -0.68 3 0 3 C0 2.01 0 1.02 0 0 Z " fill="#3043A3" transform="translate(257,222)"/>
<path d="M0 0 C0.33 0 0.66 0 1 0 C1 1.65 1 3.3 1 5 C1.66 5.33 2.32 5.66 3 6 C2.01 6.495 2.01 6.495 1 7 C0.34444881 9.52733235 0.34444881 9.52733235 0 12 C-0.33 12 -0.66 12 -1 12 C-1.14285714 3.42857143 -1.14285714 3.42857143 0 0 Z " fill="#C7D0F2" transform="translate(45,210)"/>
<path d="M0 0 C1.32 0.33 2.64 0.66 4 1 C4 2.65 4 4.3 4 6 C3.01 6.495 3.01 6.495 2 7 C2 6.34 2 5.68 2 5 C1.34 5 0.68 5 0 5 C0 3.35 0 1.7 0 0 Z " fill="#3D4FCC" transform="translate(105,210)"/>
<path d="M0 0 C0.33 0.66 0.66 1.32 1 2 C2.88764903 2.68472665 2.88764903 2.68472665 5.0625 3.125 C5.79597656 3.29257813 6.52945312 3.46015625 7.28515625 3.6328125 C7.85105469 3.75398437 8.41695313 3.87515625 9 4 C9 4.33 9 4.66 9 5 C6.36 5 3.72 5 1 5 C0.67 3.35 0.34 1.7 0 0 Z " fill="#ECF4FD" transform="translate(281,184)"/>
<path d="M0 0 C0.75 1.75 0.75 1.75 1 4 C-0.8125 6.25 -0.8125 6.25 -3 8 C-3.66 8 -4.32 8 -5 8 C-3.62845496 5.04590299 -2.01136276 2.55991624 0 0 Z " fill="#D9E2F5" transform="translate(63,176)"/>
<path d="M0 0 C2.64 0 5.28 0 8 0 C6.75 1.5 6.75 1.5 5 3 C3.68 3 2.36 3 1 3 C0.67 2.01 0.34 1.02 0 0 Z " fill="#3243AB" transform="translate(88,153)"/>
<path d="M0 0 C-0.99 0.33 -1.98 0.66 -3 1 C-3 1.66 -3 2.32 -3 3 C-4.32 3.33 -5.64 3.66 -7 4 C-6.625 2.0625 -6.625 2.0625 -6 0 C-3.50907189 -1.24546405 -2.58919267 -0.7767578 0 0 Z " fill="#4351B6" transform="translate(102,151)"/>
</svg>
